<?xml version="1.0" encoding="utf-8"?>
<!-- Generator: Adobe Illustrator 25.2.0, SVG Export Plug-In . SVG Version: 6.00 Build 0)  -->
<svg version="1.1" id="Capa_1" xmlns="http://www.w3.org/2000/svg" xmlns:xlink="http://www.w3.org/1999/xlink" x="0px" y="0px"
	 viewBox="0 0 576 573.3" style="enable-background:new 0 0 576 573.3;" xml:space="preserve">
<style type="text/css">
	.st0{fill:#FF5A9A;}
	.st1{fill:#F91E89;}
	.st2{fill:#FF97C9;}
	.st3{fill:#FFC5E4;}
	.st4{fill:#FFC751;}
	.st5{fill:#8F6BDD;}
	.st6{fill:#8042E0;}
	.st7{fill:#AB97F2;}
	.st8{fill:#C3B9F9;}
	.st9{fill:#FFAF40;}
	.st10{fill:#FFE059;}
	.st11{fill:#FFF370;}
	.st12{fill:#0A77E8;}
	.st13{fill:#0F9AF0;}
</style>
<g>
	<g>
		<circle class="st0" cx="445.2" cy="433.7" r="130.8"/>
		<path class="st1" d="M576,433.7c0,72.2-58.6,130.8-130.8,130.8c-67.5,0-123-51.1-130.1-116.7c15.5,42.7,56.5,73.2,104.6,73.2
			c61.5,0,111.3-49.8,111.3-111.3c0-50.4-33.4-92.9-79.3-106.7C520.9,306.4,576,363.6,576,433.7z"/>
		<path class="st2" d="M542.9,346.7c-24-27-59.1-43.9-98.1-43.8c-63,0.2-116,45.6-127.9,105.3c-2.3,11.4,6.5,22,18.2,22
			c8.9,0,16.4-6.3,18.2-15c8.6-42.9,46.6-75.4,92-75.4c27.8,0,52.8,12.2,70,31.5c7,7.9,19.3,8.1,26.8,0.6
			C548.9,365.1,549.4,353.9,542.9,346.7L542.9,346.7z"/>
		<path class="st3" d="M487.6,309.9c-13.4-4.6-27.8-7.1-42.8-7c-34.3,0.1-65.6,13.6-89,35.6c-7.8,7.3-7.4,19.7,0.5,26.8
			c0.1,0.1,0.2,0.2,0.3,0.3c7,6.2,17.6,6.2,24.4-0.2c16.8-15.8,39.3-25.4,64.1-25.4c10.6,0,20.8,1.8,30.3,5c7,2.4,14.7,0.4,19.6-5
			l0.3-0.3C504.2,329.8,500.1,314.2,487.6,309.9z"/>
	</g>
	<g>
		<g>
			<path class="st4" d="M444.8,498.6c-18.5,0-34.6-12.5-39.2-30.4c-2.2-8.5,3-17.1,11.5-19.3s17.1,3,19.3,11.5
				c1,3.8,4.4,6.5,8.4,6.5c4.8,0,8.7-3.9,8.7-8.7s-3.9-8.7-8.7-8.7c-8.8,0-15.9-7.1-15.9-15.9c0-8.8,7.1-15.9,15.9-15.9
				c4.8,0,8.7-3.9,8.7-8.7s-3.9-8.7-8.7-8.7c-4,0-7.4,2.7-8.4,6.5c-2.2,8.5-10.8,13.6-19.3,11.4c-8.5-2.2-13.6-10.8-11.4-19.3
				c4.6-17.9,20.7-30.4,39.2-30.4c22.3,0,40.4,18.1,40.4,40.4c0,9.2-3.1,17.7-8.3,24.5c5.2,6.8,8.3,15.3,8.3,24.5
				C485.2,480.5,467.1,498.6,444.8,498.6L444.8,498.6z"/>
		</g>
	</g>
</g>
<g>
	<g>
		<circle class="st5" cx="130.8" cy="442.5" r="130.8"/>
		<path class="st6" d="M261.6,442.5c0,72.2-58.6,130.8-130.8,130.8S0,514.7,0,442.5c0-3.1,0.1-6.2,0.3-9.3
			c4.4,58.3,53.1,104.2,112.5,104.2c62.3,0,112.9-50.5,112.9-112.9c0-59.4-45.9-108.1-104.2-112.5c3.1-0.2,6.1-0.3,9.3-0.3
			C203,311.7,261.6,370.3,261.6,442.5L261.6,442.5z"/>
		<path class="st7" d="M69.1,539.3c7.5-7.5,7.3-19.8-0.6-26.8c-19.3-17.2-31.5-42.2-31.5-70c0-51.7,42.1-93.8,93.8-93.8
			c27.8,0,52.8,12.2,70,31.5c7,7.9,19.3,8.1,26.8,0.6c6.9-6.9,7.3-18,0.9-25.3c-24-27-59.1-43.9-98.1-43.8
			C58.8,311.9,0.2,370.5,0,442.1c-0.1,39,16.8,74,43.8,98.1C51.1,546.7,62.2,546.2,69.1,539.3L69.1,539.3z"/>
		<path class="st8" d="M180.7,348.7l0.3-0.3c8.9-9.8,4.8-25.4-7.7-29.7c-13.4-4.6-27.8-7.1-42.8-7c-47.9,0.1-90,26.4-112.7,65.1
			c-7.2,12.3,1.6,27.9,15.9,27.9c6.6,0,12.7-3.6,16-9.3c16.3-27.9,46.5-46.7,81.1-46.7c10.6,0,20.8,1.8,30.3,5
			C168,356.1,175.7,354.1,180.7,348.7L180.7,348.7z"/>
	</g>
	<g>
		<g>
			<path class="st0" d="M156.9,507.4h-52.3c-6.3,0-12.1-3.8-14.6-9.6s-1.3-12.6,3-17.2c0.1-0.1,11.8-12.5,23.2-27.3
				c20.5-26.5,20.8-35.3,20.8-35.4c0-4.8-3.9-8.7-8.7-8.7c-4,0-7.4,2.7-8.4,6.5c-2.2,8.5-10.8,13.6-19.3,11.4
				c-8.5-2.2-13.6-10.8-11.4-19.3c4.6-17.9,20.7-30.4,39.1-30.4c22.3,0,40.4,18.1,40.4,40.4c0,8.3-2.8,23-27.5,54.9
				c-0.8,1-1.5,1.9-2.3,2.9h17.8c8.8,0,15.9,7.1,15.9,15.9S165.7,507.4,156.9,507.4z"/>
		</g>
	</g>
</g>
<g>
	<g>
		<circle class="st4" cx="130.8" cy="130.8" r="130.8"/>
		<path class="st9" d="M261.6,130.8c0,72.2-58.6,130.8-130.8,130.8S0,203,0,130.8c0-5,0.3-10,0.8-14.9c6.7,54.3,53,96.3,109.1,96.3
			c60.7,0,109.9-49.2,109.9-109.9c0-44.3-26.2-82.5-64-99.9C216.1,14,261.6,67.1,261.6,130.8L261.6,130.8z"/>
		<path class="st10" d="M228.4,43.7c-24-26.9-59-43.8-97.9-43.7c-40.6,0.1-77,19-101,48.4c-7.3,8.9-4.5,22.3,5.8,27.7
			c0.1,0.1,0.2,0.1,0.3,0.2c7.7,4,17.1,2.1,22.6-4.6c17.2-21.1,43.4-34.6,72.7-34.6c27.8,0,52.8,12.2,70,31.5
			c7,7.9,19.3,8.1,26.8,0.6C234.5,62.1,234.9,51,228.4,43.7L228.4,43.7z"/>
		<path class="st11" d="M173.2,7c-13.4-4.6-27.8-7.1-42.8-7c-17.8,0-34.7,3.7-50.2,10.3c-9.8,4.2-13.9,15.9-8.8,25.4
			c0.1,0.1,0.1,0.2,0.2,0.3C76,44.3,86,48,94.7,44.3c11.1-4.7,23.4-7.3,36.2-7.3c10.6,0,20.8,1.8,30.3,5c7,2.4,14.7,0.4,19.6-5
			l0.3-0.3C189.8,26.9,185.7,11.3,173.2,7L173.2,7z"/>
	</g>
	<g>
		<path class="st1" d="M136.2,195.7c-8.8,0-15.9-7.1-15.9-15.9v-62.6c-0.4,0.2-0.8,0.4-1.2,0.5c-7.9,3.7-17.4,0.2-21.1-7.7
			c-3.7-7.9-0.2-17.4,7.7-21.1c11.6-5.4,15.7-13.4,15.8-13.5c2.9-7,10.4-10.9,17.8-9.4c7.4,1.5,12.7,8,12.7,15.5v98.2
			C152,188.6,144.9,195.7,136.2,195.7L136.2,195.7z"/>
	</g>
</g>
<g>
	<g>
		<g>
			<g>
				<g>
					<g>
						<g>
							<g>
								<path class="st10" d="M329.2,339.2c2.9-1.9,2.9-6.2,0-8.1c-7.6-5-14.7-10.8-21.4-17.4c-6.7-6.6-12.5-13.7-17.5-21.2
									c-1.9-2.9-6.3-2.9-8.2,0c-5,7.5-10.9,14.6-17.5,21.2s-13.8,12.4-21.4,17.4c-2.9,1.9-2.9,6.2,0,8.1
									c7.6,5,14.7,10.8,21.4,17.4c6.7,6.6,12.5,13.7,17.5,21.2c1.9,2.9,6.3,2.9,8.2,0c5-7.5,10.9-14.6,17.5-21.2
									C314.5,349.9,321.7,344.2,329.2,339.2z"/>
							</g>
						</g>
						<g>
							<g>
								<path class="st4" d="M329.3,339.2c-7.6,5-14.7,10.8-21.4,17.4c-6.7,6.6-12.5,13.7-17.5,21.2c-1.9,2.9-6.3,2.9-8.2,0
									c-5-7.5-10.9-14.6-17.5-21.2c-0.9-0.9-1.7-1.7-2.6-2.5c1.2,0.1,2.4,0.1,3.6,0.1c22.9,0,41.5-18,42.3-40.6l0,0
									c6.7,6.6,13.8,12.4,21.4,17.4C332.2,333,332.2,337.2,329.3,339.2L329.3,339.2z"/>
							</g>
						</g>
					</g>
				</g>
			</g>
		</g>
	</g>
</g>
<g>
	<g>
		<g>
			<g>
				<g>
					<path class="st10" d="M255.8,268.7c1.5-1,1.5-3.3,0-4.3c-4-2.6-7.8-5.7-11.3-9.2c-3.5-3.5-6.6-7.3-9.3-11.2
						c-1-1.5-3.3-1.5-4.3,0c-2.6,4-5.7,7.7-9.3,11.2c-3.6,3.5-7.3,6.6-11.3,9.2c-1.5,1-1.5,3.3,0,4.3c4,2.6,7.8,5.7,11.3,9.2
						s6.6,7.3,9.3,11.2c1,1.5,3.3,1.5,4.3,0c2.6-4,5.7-7.7,9.3-11.2C248,274.3,251.8,271.3,255.8,268.7z"/>
				</g>
			</g>
			<g>
				<g>
					<path class="st4" d="M255.8,268.7c-4,2.6-7.8,5.7-11.3,9.2s-6.6,7.3-9.3,11.2c-1,1.5-3.3,1.5-4.3,0c-2.6-4-5.7-7.7-9.3-11.2
						c-0.5-0.5-0.9-0.9-1.4-1.3c0.6,0.1,1.2,0.1,1.9,0.1c12.1,0,21.9-9.5,22.3-21.4l0,0c3.5,3.5,7.3,6.6,11.3,9.2
						C257.3,265.4,257.3,267.6,255.8,268.7z"/>
				</g>
			</g>
		</g>
	</g>
</g>
<g>
	<g>
		<g>
			<g>
				<g>
					<path class="st10" d="M345.5,125c2-1.3,2-4.2,0-5.5c-5.1-3.4-9.9-7.3-14.4-11.7s-8.4-9.3-11.8-14.3c-1.3-2-4.2-2-5.5,0
						c-3.4,5.1-7.3,9.9-11.8,14.3s-9.3,8.4-14.4,11.7c-2,1.3-2,4.2,0,5.5c5.1,3.4,9.9,7.3,14.4,11.7c4.5,4.5,8.4,9.3,11.8,14.3
						c1.3,2,4.2,2,5.5,0c3.4-5.1,7.3-9.9,11.8-14.3C335.6,132.3,340.4,128.4,345.5,125z"/>
				</g>
			</g>
			<g>
				<g>
					<path class="st4" d="M345.5,125c-5.1,3.4-9.9,7.3-14.4,11.7c-4.5,4.5-8.4,9.3-11.8,14.3c-1.3,2-4.2,2-5.5,0
						c-3.4-5.1-7.3-9.9-11.8-14.3c-0.6-0.6-1.2-1.2-1.8-1.7c0.8,0.1,1.6,0.1,2.4,0.1c15.4,0,28-12.2,28.5-27.3l0,0
						c4.5,4.5,9.3,8.4,14.4,11.7C347.5,120.8,347.5,123.7,345.5,125L345.5,125z"/>
				</g>
			</g>
		</g>
	</g>
</g>
<g>
	<g>
		<g>
			<g>
				<g>
					<path class="st10" d="M384,238.6c1.5-1,1.5-3.3,0-4.3c-4-2.6-7.8-5.7-11.3-9.2s-6.6-7.3-9.3-11.2c-1-1.5-3.3-1.5-4.3,0
						c-2.6,4-5.7,7.7-9.3,11.2c-3.5,3.5-7.3,6.6-11.3,9.2c-1.5,1-1.5,3.3,0,4.3c4,2.6,7.8,5.7,11.3,9.2s6.6,7.3,9.3,11.2
						c1,1.5,3.3,1.5,4.3,0c2.6-4,5.7-7.7,9.3-11.2S380,241.2,384,238.6z"/>
				</g>
			</g>
			<g>
				<g>
					<path class="st4" d="M384,238.6c-4,2.6-7.8,5.7-11.3,9.2s-6.6,7.3-9.3,11.2c-1,1.5-3.3,1.5-4.3,0c-2.6-4-5.7-7.7-9.3-11.2
						c-0.5-0.5-0.9-0.9-1.4-1.3c0.6,0.1,1.2,0.1,1.9,0.1c12.1,0,21.9-9.5,22.3-21.4l0,0c3.5,3.5,7.3,6.6,11.3,9.2
						C385.5,235.3,385.5,237.6,384,238.6L384,238.6z"/>
				</g>
			</g>
		</g>
	</g>
</g>
<g>
	<path class="st12" d="M445.6,211.3l-16,32l16,32c17.7,0,32-14.3,32-32S463.2,211.3,445.6,211.3z"/>
	<path class="st13" d="M413.6,243.3c0,17.7,14.3,32,32,32v-64C427.9,211.3,413.6,225.6,413.6,243.3z"/>
	<path class="st12" d="M445.6,2.4l-32,32l32,32c10.6,0,19.2,8.6,19.2,19.2c0,5.6-2.5,11-6.8,14.6l-12.4,10.5L424.3,153l21.3,42.3h32
		v-27.9l21.8-18.6c18.6-15.8,29.3-38.9,29.3-63.4C528.7,39.7,491.4,2.4,445.6,2.4z"/>
	<g>
		<path class="st13" d="M413.6,137.9v57.4h32v-84.6L413.6,137.9z"/>
		<path class="st13" d="M362.4,85.5v8h64v-8c0-10.6,8.6-19.2,19.2-19.2v-64C399.7,2.4,362.4,39.7,362.4,85.5z"/>
	</g>
</g>
</svg>
