<svg id="svg" xmlns="http://www.w3.org/2000/svg" viewBox="0 0 399.60128 377.77848"><path id="path0" d="M151.8,100.8c.295.478,13.109.478,14.6,0,.58-.186-2.33-.337-6.924-.36-5.19-.026-7.838.098-7.676.36m70.4,0c.289.468,12.562.468,14.4,0,.686-.174-2.197-.326-6.724-.353-5.192-.031-7.838.091-7.676.353m54.02,8.3c-.122,4.785-.321,11.575-.442,15.088-.144,4.211-.072,6.665.212,7.2.302.569.369,9.248.224,29.012-.115,15.51-.205,31.17-.201,34.8.009,9.413,0,62.572-.012,70.2-.005,3.52.089,10.484.209,15.475.356,14.749-2.851,22.123-11.494,26.431l-2.219,1.106-1.748-.906a17.64749,17.64749,0,0,1-1.949-1.109c-.11-.111-1.038-.831-2.062-1.6-2.036-1.528-4.737-4.948-5.285-6.692a14.6,14.6,0,0,0-.7-1.8,3.94055,3.94055,0,0,1-.353-1.5c0-.443-.18-.805-.4-.805s-.4-.542-.4-1.205a5.17766,5.17766,0,0,0-4.154-5.005c-2.298-.34-119.072-.453-118.525-.115.245.151,26.684.277,58.754.28s58.945.125,59.722.271c1.632.306,2.603,1.507,3.375,4.174,1.721,5.94,3.971,9.732,7.462,12.576,2.363,1.925,7.59,4.624,8.955,4.624.446,0,.811.18.811.4,0,.243,1.8.4,4.6.4s4.6-.157,4.6-.4c0-.22.72-.4,1.6-.4s1.6-.18,1.6-.4.36-.4.8-.4.8-.18.8-.4.45-.4,1-.4,1-.16,1-.356c0-.195.315-.33.7-.3.389.031.651-.18.59-.474-.06-.291.073-.417.296-.279.222.138,1.165-.524,2.095-1.47a6.45146,6.45146,0,0,1,2.004-1.621c.173.055.315-.073.315-.284a3.09851,3.09851,0,0,1,.9-1.259c.495-.481.633-.722.307-.535s-.193-.168.295-.788.801-1.268.695-1.439.06-.408.368-.526a2.22527,2.22527,0,0,0,.829-1.442c.148-.675.435-1.227.638-1.227.202,0,.368-.641.368-1.424,0-.847.162-1.323.4-1.176.247.153.4-.537.4-1.8,0-1.126.15-1.955.333-1.841.184.113.334-.048.334-.359s-.15-.472-.334-.359c-.183.114-.333.031-.333-.184a.83764.83764,0,0,1,.5-.624c.4-.186.4-.28,0-.466-.39-.182-.48-3.605-.407-15.5L293.385,257l.208,15c.114,8.25.189-25.77.168-75.6-.041-93.884-.01-92.294-1.831-94.33-.589-.658-.964-1.303-.834-1.433a52.15309,52.15309,0,0,0-7.208-.237h-7.445l-.223,8.7m17.28,46.4c-.061,7.205-.111,1.31-.111-13.1s.05-20.305.111-13.1.061,18.995,0,26.2M126.6,133.629c0,6.891.072,7.852.51,6.779.621-1.522.524-14.465-.11-14.675-.258-.085-.4,2.722-.4,7.896m25.751,20.013c-1.376,1.291-1.427,1.376-.237.4.833-.683,1.553-1.278,1.6-1.322s4.046-.186,8.886-.316l8.8-.235-8.649-.084L154.103,152l-1.752,1.642M199.5,152.3c7.755.061,20.445.061,28.2,0s1.41-.111-14.1-.111-21.855.05-14.1.111m57.7-.034c4.327.291,9.111.31,8.94.034a26.55345,26.55345,0,0,0-5.464-.228c-2.902.04-4.466.127-3.476.194m10.165,1.059a10.24932,10.24932,0,0,1,1.512,1.5c.436.536.66.705.498.375-.461-.941-1.872-2.4-2.321-2.4-.224,0-.084.236.311.525m2.421,5.051c.008,1.289.146,2.137.308,1.884a6.15185,6.15185,0,0,0-.014-3.744c-.169-.266-.301.571-.294,1.86M150.032,159.54c-.075,1.275,1.417,3.436,3.117,4.514l1.808,1.146,55.021-.006c30.262-.003,55.23-.138,55.484-.3s-24.477-.247-54.958-.19l-55.419.104-1.691-.99c-1.499-.879-2.297-1.959-3.114-4.218-.158-.437-.225-.453-.248-.06m117.932,3.318c-.79.848-1.32,1.542-1.179,1.542.373,0,2.993-2.76,2.788-2.936-.095-.081-.819.546-1.609,1.394M211.4,181.991c-.66.173-13.99.336-29.622.362l-28.422.047-1.478,1.354a4.74112,4.74112,0,0,0-1.478,1.976,1.11557,1.11557,0,0,1-.4.87,2.2043,2.2043,0,0,0-.369,1.524c.03,1.244.048,1.23.7-.524.88-2.368,1.235-2.889,2.688-3.945l1.218-.885,55.626-.024c61.113-.026,56.919-.193,58.939,2.343.733.92.785.941.302.124-1.599-2.702-.654-2.582-23.033-2.907-11.149-.161-23.241-.369-26.871-.461a58.039,58.039,0,0,0-7.8.146m58.386,6.743c.007,1.312.146,2.179.308,1.926a5.86346,5.86346,0,0,0-.037-3.586c-.162-.413-.28.305-.271,1.66M293.5,225.9c-.061,7.205-.111,1.31-.111-13.1s.05-20.305.111-13.1.061,18.995,0,26.2M150.221,190.567c.231,1.18,1.379,3.169,1.379,2.389a1.15736,1.15736,0,0,0-.3-.718,6.7538,6.7538,0,0,1-.804-1.567c-.5-1.263-.502-1.264-.275-.104m117.743,2.691c-.79.848-1.32,1.542-1.179,1.542.373,0,2.993-2.76,2.788-2.936-.095-.081-.819.546-1.609,1.394M152,193.485c0,.349,1.599,1.453,1.8,1.243.067-.071-.311-.451-.839-.847-.529-.395-.961-.573-.961-.396m2.662,1.815c.24.388,110.19.382,110.8-.006.254-.162-24.614-.294-55.262-.294s-55.64.135-55.538.3M126.6,203.784c0,7.13.066,7.994.509,6.712.618-1.782.523-14.553-.109-14.763-.258-.086-.4,2.773-.4,8.051m42.133,8.616c-7.407.11-13.557.29-13.667.4s24.275.151,54.189.09c59.315-.119,56.777-.216,59.103,2.25.757.803,1.183,1.098.947.656a6.548,6.548,0,0,0-3.52-2.832c-1.672-.704-63.478-1.063-97.052-.564M153,213.68c-1.661.947-3.519,3.935-2.858,4.596.1.1.303-.369.451-1.043a5.93808,5.93808,0,0,1,1.91-2.628c1.717-1.47,1.833-1.686.497-.925m116.787,5.52c0,1.29.135,2.133.3,1.873a5.97815,5.97815,0,0,0,0-3.746c-.165-.26-.3.583-.3,1.873m-119.566,1.767c.231,1.18,1.379,3.169,1.379,2.389a1.15742,1.15742,0,0,0-.3-.718,6.75335,6.75335,0,0,1-.804-1.567c-.5-1.263-.502-1.264-.275-.104m118.198,2.338-.924,1.295,1.131-1.088c.623-.598,1.038-1.181.924-1.295s-.623.376-1.131,1.088m-113.481,2.389c.61.388,110.16.394,110.4.006.102-.165-24.8-.3-55.338-.3s-55.316.132-55.062.294m-1.525,17.78c-3.173,1.717-4.848,6.285-3.313,9.031.796,1.425,2.63,3.095,3.396,3.094.483-.002.312-.241-.541-.761a6.27757,6.27757,0,0,1-1.106-9.475c1.786-1.992-.975-1.903,58.118-1.867,32.829.02,55.136-.112,54.8-.325-1.147-.726-110-.429-111.354.303m115.006,2.021c.508.712,1.017,1.202,1.131,1.088s-.301-.697-.924-1.295l-1.131-1.088.924,1.295m1.368,4.105c0,1.29.135,2.133.3,1.873a5.97815,5.97815,0,0,0,0-3.746c-.165-.26-.3.583-.3,1.873m-1.887,4.467c-.825.843-1.355,1.533-1.178,1.533.411,0,3.081-2.742,2.851-2.927-.095-.077-.848.55-1.673,1.394m-112.962,2.027c.254.162,25.032.294,55.062.294s54.808-.132,55.062-.294S240.538,255.8,210,255.8s-55.316.132-55.062.294M126.6,274.185c0,7.131.066,7.995.509,6.713.618-1.785.523-14.555-.109-14.765-.258-.085-.4,2.774-.4,8.052" transform="translate(0.00725 -11.02666)" style="fill:#f3d69e;fill-rule:evenodd"/><path id="path1" d="M126.174,115.6c0,5.61.056,7.905.125,5.1s.069-7.395,0-10.2-.125-.51-.125,5.1m.015,53.4c0,14.96.05,21.022.111,13.471s.061-19.791,0-27.2-.111-1.231-.111,13.729m0,70.2c0,14.85.05,20.925.111,13.5s.061-19.575,0-27-.111-1.35-.111,13.5m-.113,45.7L126,287.2h-8.339c-9.143,0-10.09.194-11.651,2.386a7.70964,7.70964,0,0,0-.348,6.119c.255.492.632,1.235.838,1.65s.716,1.361,1.132,2.103a5.6691,5.6691,0,0,1,.705,1.587c-.231,1.043,4.669,5.65,5.763,5.419.165-.035.255.144.2.399-.055.254.799.792,1.899,1.196a5.54343,5.54343,0,0,1,2.133,1.137c.074.222.85.404,1.725.404.958,0,1.492.159,1.343.4-.164.266,23.996.4,72.176.4,48.016,0,72.424-.135,72.424-.4,0-.22-.365-.4-.811-.4-1.365,0-6.592-2.699-8.955-4.624-3.491-2.844-5.741-6.636-7.462-12.576-.772-2.667-1.743-3.868-3.375-4.174-.777-.146-27.652-.268-59.722-.271s-58.516-.133-58.769-.29a5.4643,5.4643,0,0,1-.608-2.675l-.147-2.39-.075,2.3" transform="translate(0.00725 -11.02666)" style="fill:#feba80;fill-rule:evenodd"/><path id="path2" d="M128.051,101.238c-1.596,1.487-1.725,2.532-1.667,13.557.046,8.801.154,10.65.636,10.92.853.478.837,12.896-.02,14.947-.513,1.227-.6,5.308-.6,28.144,0,23.372.075,26.737.6,26.939.5.191.6,1.328.6,6.792,0,4.811-.16,7.016-.6,8.263-.51,1.447-.6,5.69-.6,28.407,0,23.371.075,26.736.6,26.938.5.191.6,1.328.6,6.792,0,4.811-.16,7.016-.6,8.263-.966,2.739-.813,5.862.3,6.13.495.119,27.102.217,59.127.217,32.025.001,58.755.127,59.4.281a5.2802,5.2802,0,0,1,3.773,5.033c0,.627.18,1.139.4,1.139s.4.362.4.805a3.94055,3.94055,0,0,0,.353,1.5,14.6,14.6,0,0,1,.7,1.8c.548,1.744,3.249,5.164,5.285,6.692,1.024.769,1.952,1.489,2.062,1.6a17.64749,17.64749,0,0,0,1.949,1.109l1.748.906,2.219-1.106c8.643-4.308,11.85-11.682,11.494-26.431-.12-4.991-.214-11.955-.209-15.475.012-7.628.021-60.787.012-70.2-.004-3.63.086-19.29.201-34.8.145-19.764.078-28.443-.224-29.012-.284-.535-.356-2.989-.212-7.2.121-3.513.32-10.311.443-15.105l.223-8.718-20.122.215c-11.067.118-23.087.314-26.711.437-4.37.148-6.862.077-7.4-.209-.825-.44-47.987-.289-62.972.202-4.613.151-7.103.086-7.38-.191-.921-.921-22.783-.536-23.808.419M293.389,142.4c0,14.41.05,20.305.111,13.1s.061-18.995,0-26.2-.111-1.31-.111,13.1m-26.884,10.1c4.272,2.388,5.105,6.911,1.92,10.433-2.17,2.398,1.221,2.267-58.596,2.267H154.957l-1.808-1.146c-4.073-2.583-4.292-7.664-.466-10.818L154.182,152h55.715c43.827,0,55.905.107,56.608.5m-20.487,29.806c22.409.326,21.486.206,23.2,3.016a6.3379,6.3379,0,0,1-.765,8.011c-2.231,2.399,1.178,2.267-58.49,2.267H155.224l-1.504-.845c-2.937-1.649-5.016-6.029-3.792-7.988a3.07722,3.07722,0,0,0,.472-1.208,5.3611,5.3611,0,0,1,1.478-1.805l1.478-1.354,28.422-.047c15.632-.026,28.962-.189,29.622-.362a58.039,58.039,0,0,1,7.8-.146c3.63.092,15.698.3,26.818.461M293.389,212.8c0,14.41.05,20.305.111,13.1s.061-18.995,0-26.2-.111-1.31-.111,13.1m-27.604.164c4.985,2.096,6.118,7.696,2.254,11.138a4.37753,4.37753,0,0,1-1.812,1.098,1.06207,1.06207,0,0,0-.827.4c-.454.734-109.387.532-111.154-.207-5.565-2.325-5.809-9.647-.402-12.09,2.974-1.344,108.791-1.664,111.941-.339m-.613,30.316c6.638,2.23,6.976,10.34.525,12.587-2.446.852-109.21.758-111.697-.098-5.62-1.935-5.975-9.379-.587-12.295,1.555-.841,109.275-1.029,111.759-.194m28.112,29.02c-.046,8.415.051,15.3.216,15.3.272.001.261-16.722-.018-26.6-.062-2.2-.151,2.885-.198,11.3m.016,17.117c0,1.169.249,1.086.49-.163.09-.47.017-.854-.163-.854s-.327.458-.327,1.017m-3.129,9.736c.12.194-.143.812-.583,1.372-.575.731-.669,1.101-.333,1.309.293.181.362.116.183-.172-.157-.254-.108-.462.109-.462s.664-.54.993-1.2c.528-1.058.528-1.2.006-1.2-.326,0-.495.159-.375.353M275.2,309.914c0,.173.36.315.8.315s.8-.142.8-.315-.36-.314-.8-.314-.8.141-.8.314M209.773,366.4c0,5.39.057,7.595.126,4.9s.069-7.105,0-9.8-.126-.49-.126,4.9" transform="translate(0.00725 -11.02666)" style="fill:#f7e5c1;fill-rule:evenodd"/><path id="path3" d="M154.128,153.022c-4.873,2.135-4.315,10.121.779,11.139,3.593.719,110.104.24,111.499-.502a5.77332,5.77332,0,0,0,.257-10.243L264.93,152.4l-54.765.033c-45.872.027-54.972.123-56.037.589m-.363,30.534c-4.825,2.942-3.746,10.287,1.623,11.051.887.126,26.092.176,56.012.111l54.4-.118,1.306-.932c3.625-2.585,3.332-7.572-.584-9.943L265,182.804H210c-53.162-.001-55.041.024-56.235.752m.387,30.219c-5.16,2.245-4.256,10.451,1.236,11.232.887.126,26.092.176,56.012.111L265.8,225l1.306-.932a5.88559,5.88559,0,0,0-.73-10.08c-2.011-1.026-109.886-1.231-112.224-.213m.048,30.387c-4.756,2.125-4.88,8.919-.197,10.793,2.672,1.069,110.384.977,112.403-.096a5.92856,5.92856,0,0,0,.255-10.369c-1.711-.936-110.39-1.254-112.461-.328" transform="translate(0.00725 -11.02666)" style="fill:#5f6c75;fill-rule:evenodd"/><path id="path4" d="M194.204,11.593a8.03335,8.03335,0,0,1-3.298.407,16.87886,16.87886,0,0,0-5.876.967,39.65619,39.65619,0,0,1-7.43,1.993,77.20721,77.20721,0,0,0-8.109,1.67,12.79255,12.79255,0,0,1-4.757.393c-1.413-.159-2.364-.098-2.524.161a1.6641,1.6641,0,0,1-1.234.416c-.537,0-.976.18-.976.4s-.619.4-1.376.4a2.49452,2.49452,0,0,0-1.624.4,2.05545,2.05545,0,0,1-1.424.4c-.647,0-1.176.18-1.176.4s-.439.4-.976.4a1.66814,1.66814,0,0,0-1.224.4,1.62488,1.62488,0,0,1-1.2.4,1.62488,1.62488,0,0,0-1.2.4,2.05548,2.05548,0,0,1-1.424.4c-.647,0-1.176.18-1.176.4s-.362.4-.805.4a4.25759,4.25759,0,0,0-1.6.4c-.437.22-1.153.58-1.59.8a3.87065,3.87065,0,0,1-1.4.4c-.333,0-.605.18-.605.4s-.362.4-.805.4a3.82807,3.82807,0,0,0-1.5.366,19.49744,19.49744,0,0,1-4.041,1.634A60.39968,60.39968,0,0,0,129,29.6a47.57436,47.57436,0,0,1-6.014,2.8c-.322,0-.586.135-.586.301a5.699,5.699,0,0,1-1.9,1.29,19.26761,19.26761,0,0,0-2.1,1.199,5.81063,5.81063,0,0,1-2.595,1.21c-.333,0-.605.18-.605.4s-.27.4-.6.4-.6.18-.6.4-.27.4-.6.4-.6.18-.6.4a.47675.47675,0,0,1-.525.4,2.911,2.911,0,0,0-1.383.8,3.00213,3.00213,0,0,1-1.275.8.41019.41019,0,0,0-.417.4c0,.22-.32.4-.712.4a1.88317,1.88317,0,0,0-1.273.779c-.308.428-.708.687-.888.576s-.327-.012-.327.221a.46826.46826,0,0,1-.5.424,4.27242,4.27242,0,0,0-1.662,1,5.38236,5.38236,0,0,1-1.438,1,5.38236,5.38236,0,0,0-1.438,1,4.27242,4.27242,0,0,1-1.662,1c-.275,0-.5.141-.5.314,0,.172-.545.635-1.211,1.029a13.21729,13.21729,0,0,0-2.182,1.686,4.33466,4.33466,0,0,1-1.22.971A9.26566,9.26566,0,0,0,92.4,52.8a6.51383,6.51383,0,0,1-1.977,1.6,11.38212,11.38212,0,0,0-2.64,2.2,12.374,12.374,0,0,1-2.588,2.2c-.213,0-3.714,3.33-7.779,7.4s-7.3,7.4-7.188,7.4c.247,0-.276.618-2.628,3.106-2.59,2.741-5.359,6.093-5.654,6.846a9.12772,9.12772,0,0,1-1.5,1.944A4.771,4.771,0,0,0,59.2,87.308a1.84384,1.84384,0,0,1-.8,1.092,1.84782,1.84782,0,0,0-.8,1.128A3.8546,3.8546,0,0,1,56.4,91.2a3.86678,3.86678,0,0,0-1.2,1.664,1.62242,1.62242,0,0,1-.8,1.043,1.62378,1.62378,0,0,0-.8,1.047,1.67369,1.67369,0,0,1-.607,1.052,6.70244,6.70244,0,0,0-1.246,1.849c-.351.74-.798,1.345-.993,1.345s-.354.27-.354.6-.18.6-.4.6-.4.277-.4.616a7.81024,7.81024,0,0,1-2.1,3.317c-.165.074-.3.479-.3.9,0,.422-.135.767-.301.767a5.699,5.699,0,0,0-1.29,1.9,15.43647,15.43647,0,0,1-1.228,2.1c-.249.208-.903,1.8-.739,1.8a3.51127,3.51127,0,0,1-.459,1,3.00988,3.00988,0,0,0-.468,1.3c.047.165-.095.3-.315.3a.47343.47343,0,0,0-.4.52c0,.736-.941,2.673-1.3,2.677-.165.002-.3.363-.3.803s-.18.8-.4.8-.4.36-.4.8-.18.8-.4.8-.4.272-.4.605a3.87072,3.87072,0,0,1-.4,1.4c-.22.437-.58,1.153-.8,1.59a3.87072,3.87072,0,0,0-.4,1.4c0,.333-.135.606-.3.608-.406.004-1.3,1.983-1.3,2.877,0,.396-.18.72-.4.72s-.4.362-.4.805a3.828,3.828,0,0,1-.366,1.5,45.24248,45.24248,0,0,0-2.663,6.895,24.823,24.823,0,0,1-1.433,3.78A1.96044,1.96044,0,0,0,30,144.096a48.08868,48.08868,0,0,1-2.003,7.308,4.95163,4.95163,0,0,0-.054,2.4,5.76006,5.76006,0,0,1,.04,2.396c-.157.66-.508,2.28-.78,3.6s-.634,2.94-.805,3.6-.531,2.55-.8,4.2c-.497,3.044-1.457,6.289-2.064,6.98a11.29911,11.29911,0,0,0-.334,3.476,8.3563,8.3563,0,0,1-.4,3.344c-.234.145-.4,2.449-.4,5.557a29.28877,29.28877,0,0,1-.3,5.61c-.382.382-.39.452-.45,4.033l-.05,3H11.786C-.705,199.6,0,199.264,0,205.217c0,3.312.141,4.467.6,4.926a2.10111,2.10111,0,0,1,.6,1.228c0,.346.158.629.351.629.194,0,.576.54.849,1.2s.655,1.2.849,1.2c.193,0,.351.36.351.8s.18.8.4.8.4.281.4.624.18.512.4.376.4.123.4.576.18.824.4.824.4.27.4.6.18.6.4.6.4.27.4.6.18.6.4.6.4.36.4.8.141.8.314.8a6.27311,6.27311,0,0,1,1.731,2.69,2.24512,2.24512,0,0,0,.536.91,4.88177,4.88177,0,0,1,.799,1.5c.15.495.406.9.568.9a6.01905,6.01905,0,0,1,1.273,1.994,6.078,6.078,0,0,0,1.279,2c.165.003.3.276.3.606s.18.6.4.6.4.27.4.6.157.6.35.6c.684,0,3.119,2.624,3.79,4.083a5.77651,5.77651,0,0,0,1.076,1.727c.728.45,1.984,3.345,1.984,4.574,0,.669.18,1.216.4,1.216s.4.36.4.8.18.8.4.8.4.242.4.538a2.34893,2.34893,0,0,0,.8,1.262,2.45152,2.45152,0,0,1,.8,1.1,4.58193,4.58193,0,0,0,.788,1.483c.434.609.674,1.222.534,1.362-.141.14-.036.255.232.255s.676.54.906,1.2.581,1.2.779,1.2c.199,0,.361.36.361.8s.18.8.4.8a.47439.47439,0,0,1,.413.5,3.004,3.004,0,0,0,.641,1.3c.622.791.626.79.371-.066-.142-.477-.074-.98.15-1.119a13.80292,13.80292,0,0,0,1.763-2.533c.745-1.255,3.116-5.162,5.268-8.682,2.153-3.52,5.665-9.28,7.805-12.8,2.141-3.52,4.836-7.93,5.991-9.8,6.625-10.734,12.029-19.728,13.458-22.4,1.061-1.984,1.013-2-6.2-2H52.52l-1.592-1.153c-2.509-1.818-2.707-2.696-2.158-9.553A161.84578,161.84578,0,0,1,51.259,170.8c.218-.99.556-2.52.75-3.4,2.217-10.048,4.417-16.758,9.611-29.317,2.935-7.098,4.066-9.492,6.06-12.824a27.97278,27.97278,0,0,0,1.52-2.728,13.87422,13.87422,0,0,1,1.2-1.931,8.32132,8.32132,0,0,0,1.2-2.172A.41619.41619,0,0,1,72,118c.22,0,.4-.27.4-.6s.18-.6.4-.6.4-.27.4-.6.18-.6.4-.6.4-.27.4-.6.18-.6.4-.6.4-.27.4-.6.141-.6.314-.6c.172,0,.629-.533,1.014-1.185a11.64533,11.64533,0,0,1,1.199-1.7,20.47075,20.47075,0,0,0,1.467-1.915,15.48144,15.48144,0,0,1,1.209-1.6c.133-.11.876-1.041,1.651-2.068,5.411-7.173,17.534-19.086,25.778-25.332,1.742-1.32,3.517-2.715,3.943-3.1a2.65182,2.65182,0,0,1,1.267-.7.704.704,0,0,0,.625-.33,48.09651,48.09651,0,0,1,6.537-4.47,18.42866,18.42866,0,0,0,2.518-1.53c2.436-1.635,10.935-6.07,11.634-6.07.23,0,2.869-1.084,5.863-2.408a175.93717,175.93717,0,0,1,21.781-7.57c5.741-1.48,6.138-1.576,8.2-1.986,5.583-1.11,7.866-1.454,16.164-2.437,5.829-.691,12.035-.536,12.042.301.005.598.063.613.394.1q.387-.6.394-.1a.56646.56646,0,0,0,.606.5c.33,0,.6-.183.6-.406,0-.224.495-.377,1.1-.34a11.15419,11.15419,0,0,0,2.9-.443c3.118-.883,13.187-.699,15.16.277,1.248.618,2.538.823,5.534.882,2.148.042,3.966.246,4.039.453.074.207,1.458.377,3.077.377a7.68106,7.68106,0,0,1,3.19.4,4.18661,4.18661,0,0,0,2.247.4c1.232,0,1.905.154,1.753.4-.152.247.529.4,1.776.4,1.113,0,2.024.18,2.024.4s.72.4,1.6.4,1.6.169,1.6.375.337.35.748.319a8.86374,8.86374,0,0,1,2.3.396c.854.249,2.902.834,4.552,1.3a33.51487,33.51487,0,0,1,3.6,1.168,2.46851,2.46851,0,0,0,1.3.217c.385-.057.7.06.7.26,0,.201.439.365.976.365a1.69569,1.69569,0,0,1,1.189.344,8.12522,8.12522,0,0,0,2.885.617,17.87425,17.87425,0,0,1,5.311,1.496c1.452.671,3.089,1.429,3.639,1.682,1.157.534,1.999,1.261,2.003,1.732.002.181.407.527.9.769a24.122,24.122,0,0,1,4.63,2.66c.074.165.479.3.9.3.422,0,.767.18.767.4s.36.4.8.4.8.159.8.353c0,.195.315.454.7.576a10.13811,10.13811,0,0,1,3.233,1.971c.074.165.451.3.838.3a2.40643,2.40643,0,0,1,1.429.8,2.5022,2.5022,0,0,0,1.071.8,14.84431,14.84431,0,0,1,3.862,2.5.706.706,0,0,0,.612.3,1.84467,1.84467,0,0,1,1.055.8,1.84391,1.84391,0,0,0,1.092.8,4.57573,4.57573,0,0,1,1.771,1.2,5.14706,5.14706,0,0,0,1.636,1.2,4.39454,4.39454,0,0,1,1.501,1.2,4.50512,4.50512,0,0,0,1.482,1.2,7.096,7.096,0,0,1,1.89,1.4,5.20635,5.20635,0,0,0,2.465,1.4c2.106,0,8.629,6.845,8.195,8.6-.054.22.017.284.159.143.141-.142,1.101.656,2.133,1.772s2.911,3.065,4.176,4.33a18.1806,18.1806,0,0,1,2.3,2.557,1.88484,1.88484,0,0,0,.5.791,30.51708,30.51708,0,0,1,3.15,3.962,8.20038,8.20038,0,0,0,1.367,1.636A6.24606,6.24606,0,0,1,332,109.989a3.34145,3.34145,0,0,0,.9,1.293,10.11531,10.11531,0,0,1,1.468,2.018c.312.605.695,1.1.851,1.1s.508.54.781,1.2.655,1.2.849,1.2a.38973.38973,0,0,1,.351.417,3.00208,3.00208,0,0,0,.8,1.275,2.911,2.911,0,0,1,.8,1.383.47676.47676,0,0,0,.4.525.41645.41645,0,0,1,.4.429c0,.466.985,1.571,1.4,1.571,1.278,0,5.4,7.943,5.4,10.406,0,.877.18,1.594.4,1.594a.47345.47345,0,0,1,.4.52c0,.736.941,2.673,1.3,2.677.165.002.3.363.3.803s.18.8.4.8.4.355.4.788a5.73718,5.73718,0,0,0,.731,2.1,18.96763,18.96763,0,0,1,1.287,3.212c.306,1.045.697,1.9.869,1.9s.313.551.313,1.224.16,1.124.355,1.004c.196-.121.466.318.6.976.135.658.355,1.736.49,2.396s.405,1.2.6,1.2.355.54.355,1.2.18,1.2.4,1.2.4.54.4,1.2.18,1.2.4,1.2.4.72.4,1.6.18,1.6.4,1.6.4.72.4,1.6.18,1.6.4,1.6.4.6.4,1.333a3.34248,3.34248,0,0,0,.292,1.625,5.60921,5.60921,0,0,1,.391,2.118,5.62217,5.62217,0,0,0,1.045,3.075c.858,1.133,1.182,2.413,1.688,6.649.577,4.842.583,5.504.061,7.003a6.29212,6.29212,0,0,0-.361,2.597c.367,1.874.514,19.682.166,20.142a13.05374,13.05374,0,0,0-.442,3.658,65.8765,65.8765,0,0,1-.709,7c-.337,2.09-.661,4.52-.72,5.4a9.49412,9.49412,0,0,1-.379,2.24,8.29947,8.29947,0,0,0-.352,2.1c-.044.803-.215,1.46-.38,1.46s-.3.911-.3,2.024c0,1.247-.153,1.928-.4,1.776-.238-.147-.4.321-.4,1.153a2.54758,2.54758,0,0,1-.4,1.647,2.49452,2.49452,0,0,0-.4,1.624c0,.757-.18,1.376-.4,1.376s-.4.6-.4,1.333a3.41716,3.41716,0,0,1-.274,1.608,11.56846,11.56846,0,0,0-1.32,3.959c-.003.385-.205.7-.449.7-.26,0-.329.288-.165.7a3.45584,3.45584,0,0,1-.071,3.332c-.334.753-.789,1.818-1.011,2.368s-.562,1.313-.757,1.695a3.22575,3.22575,0,0,0-.353,1.09c0,1.034-5.696,12.699-7.856,16.088-1.408,2.209-5.013,7.15-7.971,10.927a22.58477,22.58477,0,0,0-1.286,1.9c-.363.605-.801,1.1-.973,1.1-.173,0-.314.232-.314.514a7.4979,7.4979,0,0,1-1.589,2.3,8.90506,8.90506,0,0,0-1.6,2.19c-.006.222-.33.603-.719.846a10.03145,10.03145,0,0,0-1.9,2.196,35.90967,35.90967,0,0,1-3.487,4.054,9.723,9.723,0,0,0-2,2.312c.162.007-.02.196-.405.42s-.7.59-.7.814c0,.484-2.935,3.382-6.227,6.147-1.305,1.096-3.326,2.941-4.49,4.1A15.94612,15.94612,0,0,1,307.717,316a2.33314,2.33314,0,0,0-.883.591c-.349.325-1.121,1.045-1.716,1.6a4.26244,4.26244,0,0,1-1.44,1.009,5.28112,5.28112,0,0,0-1.615,1.2,5.82156,5.82156,0,0,1-1.559,1.202,5.41427,5.41427,0,0,0-1.504,1.1,13.21506,13.21506,0,0,1-2.3,1.666c-.605.312-1.1.717-1.1.9,0,.182-.255.332-.567.332a.81907.81907,0,0,0-.7.3A95.48508,95.48508,0,0,1,286,332.275c-1.71,1.156-9.334,5.105-13.2,6.837-4.717,2.114-5.62,2.488-6.001,2.488-.393,0-.936.239-2.899,1.275a9.51224,9.51224,0,0,1-3.1.553,14.20737,14.20737,0,0,0-5.877,1.217,17.63426,17.63426,0,0,1-3,.926c-.948.196-2.263.525-2.923.731a3.80966,3.80966,0,0,1-1.663.215.64787.64787,0,0,0-.724.262,2.46361,2.46361,0,0,1-1.637.421c-.757,0-1.376.18-1.376.4s-.684.4-1.52.4a3.836,3.836,0,0,0-1.9.363c-.367.35-2.098.611-7.18,1.082a8.09544,8.09544,0,0,0-2.78.589,11.59309,11.59309,0,0,1-3.7.366c-1.947,0-3.32.165-3.32.4,0,.244-1.867.4-4.8.4s-4.8.156-4.8.4c0,.22-.39.4-.867.4-.476,0-.757.109-.624.242s-.242.69-.834,1.238l-1.075.996-.106,10.835c-.058,5.959-.193,10.922-.3,11.028-.386.386-.192,6.861.206,6.861.233,0,.4-1.337.4-3.21,0-3.856-.152-3.75,6-4.168,5.379-.364,12.202-1.268,14-1.854a32.2424,32.2424,0,0,1,3.3-.812c2.661-.499,5.375-1.048,7.6-1.538,1.045-.23,2.755-.606,3.8-.837,1.045-.23,2.89-.567,4.1-.749a109.97909,109.97909,0,0,0,16.6-5.031c.66-.299,2.1-.849,3.2-1.222,27.81-9.437,60.303-33.878,81.6-61.379A189.5866,189.5866,0,0,0,382.058,240c.216-.77.646-2.84.956-4.6.309-1.76.758-4.01.996-5,.781-3.241,1.222-5.365,1.579-7.6a43.48771,43.48771,0,0,1,.993-4.4c1.435-4.913,2.223-13.398,2.489-26.8.27-13.638-.594-27.142-1.946-30.4a19.76943,19.76943,0,0,1-.774-3.4c-.197-1.32-.547-3.39-.778-4.6-.23-1.21-.471-2.83-.534-3.6-.237-2.859-.666-4.891-2.239-10.6-.182-.66-.625-2.28-.984-3.6-2.262-8.311-9.112-25.839-10.887-27.859a77.62818,77.62818,0,0,1-5.18-10.122c-.684-1.895-5.041-9.226-8.012-13.48a23.72161,23.72161,0,0,1-2.137-3.4,4.88858,4.88858,0,0,0-.998-1.498,7.70288,7.70288,0,0,1-1.36-2.474,8.186,8.186,0,0,0-1.703-2.737c-.736-.782-2.149-2.334-3.139-3.45-3.321-3.743-4.058-4.437-4.881-4.596a9.148,9.148,0,0,1-3.739-2.345c-.474-.462-1.788-1.706-2.921-2.766-1.819-1.703-2.279-2.482-2.106-3.573.026-.165-.223-.3-.553-.3s-.6-.18-.6-.4a.40013.40013,0,0,0-.398-.4,10.71576,10.71576,0,0,1-2.441-2,11.43366,11.43366,0,0,0-2.401-2,6.94267,6.94267,0,0,1-1.859-1.428,19.17853,19.17853,0,0,0-2.601-2.086c-.605-.362-1.1-.8-1.1-.972,0-.173-.27-.314-.6-.314s-.6-.18-.6-.4a.46559.46559,0,0,0-.5-.405,3.69354,3.69354,0,0,1-1.5-.803C316.824,43.379,314.794,42,314.312,42a1.84561,1.84561,0,0,1-1.112-.8,1.92177,1.92177,0,0,0-1.288-.8c-.392,0-.712-.18-.712-.4s-.281-.4-.624-.4-.512-.18-.376-.4-.078-.404-.476-.409A3.71874,3.71874,0,0,1,308,38a4.323,4.323,0,0,0-1.317-.791,3.106,3.106,0,0,1-1.12-.757,5.45778,5.45778,0,0,0-2.505-.982c-2.195-.301-9.36-3.985-10.658-5.48a9.68634,9.68634,0,0,0-3.2-2.003,28.57364,28.57364,0,0,1-3.4-1.564,15.9917,15.9917,0,0,0-3.1-1.256c-1.045-.298-1.9-.682-1.9-.854S280.26,24,279.6,24s-1.2-.147-1.2-.328c0-.18-.9-.572-2-.872s-2-.692-2-.872c0-.181-.439-.328-.976-.328a1.66811,1.66811,0,0,1-1.224-.4,2.10276,2.10276,0,0,0-1.447-.4c-.698,0-1.097-.167-.953-.4s-.263-.4-.976-.4c-.673,0-1.224-.18-1.224-.4s-.529-.4-1.176-.4A2.05548,2.05548,0,0,1,265,18.8a2.49449,2.49449,0,0,0-1.624-.4c-.757,0-1.376-.18-1.376-.4s-.529-.4-1.176-.4a2.106,2.106,0,0,1-1.398-.358c-.282-.457-2.5-.787-8.073-1.2a33.97107,33.97107,0,0,1-4.817-.558,30.19029,30.19029,0,0,0-3.924-.848,11.975,11.975,0,0,1-3.835-1.073c-.999-1.617-43.626-3.501-44.573-1.97m-2.791,38.386c-.13.21.151.305.63.213,1.195-.23,1.468-.592.447-.592a1.43867,1.43867,0,0,0-1.077.379m-5.561.736c-.107.173.243.351.777.396.534.044.971-.098.971-.315,0-.469-1.466-.536-1.748-.081m-22.081,5.476c-.677.512-.688.585-.095.596a1.1758,1.1758,0,0,0,.94-.414c.436-.705-.023-.803-.845-.182m-2.719.818c-.197.512-.092.536.657.146,1.275-.663,1.324-.755.4-.755a1.17639,1.17639,0,0,0-1.057.609M141,65.6c-.136.22.023.4.353.4a1.0868,1.0868,0,0,0,.847-.4c.136-.22-.023-.4-.353-.4a1.0868,1.0868,0,0,0-.847.4m-5.975,3.431c-1.01.739-.676.966.51.347.515-.268.783-.582.596-.697-.187-.116-.685.042-1.106.35m-4.724,2.906c-.605.364-1.1.81-1.1.99-.001.18.539-.057,1.199-.527,1.777-1.266,1.715-1.558-.099-.463m163.297,37.181.197,4.282.118-3.965a16.30372,16.30372,0,0,0-.198-4.281c-.173-.175-.226,1.609-.117,3.964M84.919,116.09q-1.167,1.5075-.543,1.51c.233,0,.424-.255.424-.567a.838.838,0,0,1,.5-.745c.275-.098.391-.297.257-.443-.134-.145-.421-.035-.638.245m41.645,17.31c-.001,3.74.059,5.324.133,3.52.074-1.805.075-4.865.001-6.8-.073-1.936-.134-.46-.134,3.28m-53.279,3.013a3.24084,3.24084,0,0,0-.469,1.482c.009.398.272.113.606-.656.668-1.538.592-1.994-.137-.826M174.7,152.298c2.035.073,5.365.073,7.4,0s.37-.132-3.7-.132-5.735.059-3.7.132m70.18,0c1.914.073,5.154.073,7.2,0,2.046-.072.48-.132-3.48-.133-3.96,0-5.634.059-3.72.133m20.92.575c.44.247,1.34.82,2,1.272.98.673,1.095.693.629.113a6.22375,6.22375,0,0,0-1.68-1.284c-1.3-.673-2.123-.76-.949-.101m-113.996,1.523c-.63.658-1.062,1.279-.96,1.381s.682-.436,1.288-1.196c1.355-1.698,1.204-1.784-.328-.185m-1.587,3.128a4.21514,4.21514,0,0,0,.143,2.1c.329.826.393.654.415-1.124.028-2.325-.182-2.691-.558-.976M269.701,158.6c.004.88.086,1.193.182.695a4.36588,4.36588,0,0,0-.008-1.6c-.1-.382-.179.025-.174.905M395.6,162.176c0,.563.18,1.024.4,1.024s.4-.349.4-.776a1.3344,1.3344,0,0,0-.4-1.024c-.227-.14-.4.196-.4.776m-128.363.943-1.363,1.081H209.975c-30.744,0-55.691.132-55.437.294s25.173.297,55.375.3c58.788.006,56.446.084,58.249-1.939,1.007-1.131.735-1.053-.925.264M396.4,165.91a1.43869,1.43869,0,0,0,.379,1.077c.21.13.305-.151.213-.63-.23-1.195-.592-1.468-.592-.447m.806,4.99a3.3095,3.3095,0,0,0,.394,1.5c.288.446.389.216.394-.9.003-.825-.174-1.5-.394-1.5s-.397.405-.394.9M293.762,177c0,3.52.062,4.906.136,3.081s.074-4.705-.001-6.4-.136-.201-.135,3.319M398,176.753c0,1.566.669,1.98.713.44a2.02565,2.02565,0,0,0-.34-1.41c-.205-.126-.373.31-.373.97m-183.479,5.945c2.156.073,5.576.072,7.6,0,2.023-.073.259-.132-3.921-.131-4.18,0-5.836.059-3.679.131m-61.567.993c-1.312,1.012-2.123,1.945-2.141,2.463-.007.195.376-.141.852-.745a9.45322,9.45322,0,0,1,2.1-1.853c.679-.414,1.034-.754.789-.755a4.46938,4.46938,0,0,0-1.6.89m113.568.034a8.55684,8.55684,0,0,1,2.297,2.098c.427.647.777,1.025.778.839.006-.706-1.707-2.698-2.809-3.268-1.782-.922-1.963-.696-.266.331m132.284.751a2.72228,2.72228,0,0,0,.394,1.724c.516.319.516-1.802,0-2.6-.289-.447-.389-.224-.394.876M59.6,187.6c0,.73.166,1.145.4,1a1.45,1.45,0,0,0,0-2c-.234-.145-.4.27-.4,1m90.617.324a4.21519,4.21519,0,0,0,.143,2.1c.329.826.393.654.415-1.124.028-2.325-.182-2.691-.558-.976M269.701,189c.004.88.086,1.193.182.695a4.366,4.366,0,0,0-.008-1.6c-.1-.382-.179.025-.174.905m-2.464,4.519-1.363,1.081H209.952c-30.757,0-55.614.122-55.237.272.377.149,25.306.284,55.398.3,58.584.03,56.246.107,58.049-1.917,1.007-1.131.735-1.053-.925.264M126.564,203.8c-.001,3.74.059,5.324.133,3.52.074-1.805.075-4.865.001-6.8-.073-1.936-.134-.46-.134,3.28m57.336,9.3c14.795.058,39.005.058,53.8,0s2.69-.106-26.9-.106-41.695.048-26.9.106m82.551.902a7.21953,7.21953,0,0,1,2.293,2.082c.463.724.846,1.164.849.978.023-1.127-3.071-3.911-4.273-3.844-.176.009.333.362,1.131.784m-114.647,1.194c-.63.658-1.062,1.279-.96,1.381s.682-.436,1.288-1.196c1.355-1.698,1.204-1.784-.328-.185m-1.587,3.128a4.21517,4.21517,0,0,0,.143,2.1c.329.826.393.654.415-1.124.028-2.325-.182-2.691-.558-.976m119.476.876c0,.77.082,1.085.183.7a3.30412,3.30412,0,0,0,0-1.4c-.101-.385-.183-.07-.183.7M70.632,223.393c-.584.767-.821,1.301-.526,1.188.506-.195,2.138-2.581,1.764-2.581a7.058,7.058,0,0,0-1.238,1.393m196.605.526L265.874,225l-55.237.204-55.237.204,54.25.096c58.25.103,56.039.161,58.017-1.531,1.692-1.447,1.376-1.487-.43-.054M62.8,235.8c0,.33.18.6.4.6s.4-.27.4-.6-.18-.6-.4-.6-.4.27-.4.6m230.963,11.4c0,3.63.06,5.115.135,3.3.074-1.815.074-4.785,0-6.6-.075-1.815-.135-.33-.135,3.3M158.5,243.497c1.485.077,3.915.077,5.4,0s.27-.14-2.7-.14-4.185.063-2.7.14m64.4.002c2.585.069,6.815.069,9.4,0,2.585-.07.47-.127-4.7-.127s-7.285.057-4.7.127m-69.5.581c-2.374,1.353-3.834,4.593-3.07,6.811l.452,1.309-.191-1.403a6.28192,6.28192,0,0,1,3.609-6.632c.66-.294.93-.535.6-.537a3.495,3.495,0,0,0-1.4.452m112.4.132c.88.317,1.639.579,1.686.582a13.6143,13.6143,0,0,1,1.1,1.499c.558.821,1.014,1.344,1.014,1.162,0-1.336-3.098-3.876-4.68-3.837-.396.009,0,.277.88.594m3.893,5.388c0,.77.082,1.085.183.7a3.30421,3.30421,0,0,0,0-1.4c-.101-.385-.183-.07-.183.7m-215.618.784c-.939,1.271-1.121,1.815-.472,1.414.4-.247,1.741-2.598,1.482-2.598a6.26369,6.26369,0,0,0-1.01,1.184m213.911,3.393a9.04929,9.04929,0,0,1-1.786,1.198c-.66.341-.923.621-.585.623.556.002,3.678-2.343,3.171-2.382a2.00033,2.00033,0,0,0-.8.561m-116.142.294a6.0951,6.0951,0,0,0,2.91,1.453c.165-.068-.469-.498-1.409-.956-.939-.457-1.615-.681-1.501-.497M182.7,255.9c15.015.058,39.585.058,54.6,0s2.73-.106-27.3-.106-42.315.048-27.3.106M126.565,274c0,3.85.06,5.425.133,3.5s.073-5.075,0-7-.133-.35-.133,3.5m185.264,85.429c-.424.309-.693.64-.599.734s.518-.082.941-.392c.424-.309.693-.64.599-.734s-.518.082-.941.392m-9.037,5.581c-.748.901-.314,1.005.578.138.423-.411.581-.748.349-.748a1.62086,1.62086,0,0,0-.927.61M252.2,384.4c-.504.217-.578.344-.2.344a4.40656,4.40656,0,0,0,1.4-.344c.504-.217.578-.344.2-.344a4.407,4.407,0,0,0-1.4.344m-3.948.715c-.107.173.243.351.777.396.534.044.971-.098.971-.315,0-.469-1.466-.536-1.748-.081M244.6,386l-.8.344.8.022A2.88728,2.88728,0,0,0,246,386c.795-.514-.204-.514-1.4,0m-4.8.796c-.641.272-.543.326.499.271.715-.037,1.3-.202,1.3-.367.001-.381-.771-.34-1.799.096m-27.576,1.391c1.015.769,1.61.776.976.013a1.72565,1.72565,0,0,0-1.125-.6c-.503,0-.473.117.149.587" transform="translate(0.00725 -11.02666)" style="fill:#97d57e;fill-rule:evenodd"/><path id="path5" d="M238.559,13.417a10.8518,10.8518,0,0,0,3.729,1.169c1.712.304,3.922.742,4.912.974a19.26494,19.26494,0,0,0,3.8.399c1.986-.021-3.588-1.327-9.091-2.13a4.76138,4.76138,0,0,1-2.123-.652,1.37339,1.37339,0,0,0-1.038-.377c-.725,0-.744.061-.189.617m-61.159.8c-8.195,1.577-13.443,2.912-11.597,2.95a12.13253,12.13253,0,0,0,3-.37c1.728-.498,6.978-1.609,8.597-1.819,3.115-.405,7.688-1.809,5.6-1.719-.44.018-2.96.45-5.6.958M292.433,29.956c.675,1.064,7.954,5.012,10.034,5.441.735.152-.999-.926-3.867-2.404a68.23245,68.23245,0,0,1-5.986-3.337c-.765-.637-.77-.629-.181.3M206.68,48.011c-5.47.518-3.851.79,4.553.764,4.9-.016,7.831-.162,7.326-.366-1.24-.501-8.293-.737-11.879-.398m-21.28.831c-7.672.931-10.157,1.312-15.6,2.394-2.062.41-2.459.506-8.2,1.986a175.93717,175.93717,0,0,0-21.781,7.57c-2.994,1.324-5.633,2.408-5.863,2.408-.699,0-9.198,4.435-11.634,6.07a18.42866,18.42866,0,0,1-2.518,1.53,48.09651,48.09651,0,0,0-6.537,4.47.704.704,0,0,1-.625.33,2.65182,2.65182,0,0,0-1.267.7c-.426.385-2.201,1.78-3.943,3.1-8.244,6.246-20.367,18.159-25.778,25.332-.775,1.027-1.518,1.958-1.651,2.068a15.48144,15.48144,0,0,0-1.209,1.6,20.47075,20.47075,0,0,1-1.467,1.915,11.64533,11.64533,0,0,0-1.199,1.7c-.385.652-.842,1.185-1.014,1.185-.173,0-.314.27-.314.6s-.18.6-.4.6-.4.27-.4.6-.18.6-.4.6-.4.27-.4.6-.18.6-.4.6-.4.27-.4.6-.18.6-.4.6a.41619.41619,0,0,0-.4.428,8.32132,8.32132,0,0,1-1.2,2.172,13.87422,13.87422,0,0,0-1.2,1.931,27.97278,27.97278,0,0,1-1.52,2.728c-1.994,3.332-3.125,5.726-6.06,12.824-5.194,12.559-7.394,19.269-9.611,29.317-.194.88-.532,2.41-.75,3.4a161.84578,161.84578,0,0,0-2.489,18.894c-.549,6.857-.351,7.735,2.158,9.553L52.52,200.4h6.74c5.127,0,6.739.12,6.738.5-.004.763-1.038,2.616-6.212,11.131-1.928,3.173-3.994,6.579-4.589,7.569-.596.99-2.031,3.33-3.189,5.2s-3.856,6.28-5.997,9.8c-2.14,3.52-5.652,9.28-7.804,12.8s-4.447,7.3-5.1,8.4a24.58694,24.58694,0,0,1-1.779,2.667c-.619.697-.193,2.142.832,2.827.292.195.251.296-.121.3-.379.004-.284.247.293.747.469.407.737.857.594,1-.143.142-.019.259.274.259s.422.111.286.248c-.136.136.015.51.337.832.321.321.465.778.319,1.014-.157.255-.078.313.196.144.254-.157.462-.073.462.186,0,.716,2.474,2.722,3.074,2.492.289-.111.526-.002.526.241,0,.244.336.443.747.443,1.199,0,4.853-1.66,4.853-2.205a2.14879,2.14879,0,0,1,.9-1.165c.495-.367.662-.55.37-.407-.695.342.2-1.307,1.23-2.266a2.14989,2.14989,0,0,0,.7-1.228,2.90029,2.90029,0,0,1,.8-1.437,3.00217,3.00217,0,0,0,.8-1.275.41021.41021,0,0,1,.4-.417c.22,0,.4-.341.4-.757a1.103,1.103,0,0,1,.593-.985.63462.63462,0,0,0,.332-.908c-.177-.461-.11-.588.207-.392.281.174.468.04.468-.334,0-.343.136-.624.302-.624.167,0,.542-.541.835-1.202.293-.662.716-1.089.94-.95.251.155.315-.044.166-.514-.172-.541.225-1.284,1.352-2.529,1.145-1.265,1.456-1.852,1.101-2.078-.385-.244-.378-.316.033-.321.738-.008,1.922-1.204,1.2-1.212-.434-.005-.433-.067.005-.345a1.22009,1.22009,0,0,0,.564-.694c.077-.928.429-1.755.749-1.755.194,0,.353-.27.353-.6s.18-.6.4-.6a.41645.41645,0,0,0,.4-.429c0-.592,1.049-1.589,1.352-1.285.137.136.248-.128.248-.586a1.16451,1.16451,0,0,1,.5-1.035c.347-.14.32-.211-.089-.233-.406-.022-.312-.226.3-.655a2.18747,2.18747,0,0,0,.889-1.573A1.17359,1.17359,0,0,1,63.6,235c.44-.14.8-.512.8-.827s.135-.574.3-.576c.365-.004,1.3-1.946,1.3-2.7,0-.299.167-.441.372-.314.204.126.601-.403.88-1.177.28-.773.633-1.406.785-1.406s.388-.445.524-.989a4.775,4.775,0,0,1,1.144-1.859c.492-.478.637-.722.322-.542-.314.18-.068-.334.548-1.142.616-.807,1.273-1.468,1.46-1.468s.236-.27.11-.6c-.144-.373.002-.6.386-.6.431,0,.564-.287.443-.954-.127-.701.038-1.008.627-1.162.545-.143.799-.546.799-1.27,0-.606.172-.955.4-.814.222.137.403-.164.406-.676.005-.743.082-.807.394-.324.301.466.389.351.394-.517a3.39528,3.39528,0,0,1,.806-1.975,2.911,2.911,0,0,0,.8-1.383.47675.47675,0,0,1,.4-.525c.22,0,.4-.281.4-.624,0-.369.188-.507.462-.338s.353.111.196-.144c-.146-.236.006-.701.338-1.033A2.08966,2.08966,0,0,0,80,207.852a1.0927,1.0927,0,0,1,.4-.852,4.11633,4.11633,0,0,0,.4-2.224c0-1.087-.18-1.976-.4-1.976s-.4-.283-.4-.629a1.73576,1.73576,0,0,0-.515-1.1c-1.492-1.363-2.302-1.471-11.08-1.471H59.6v-6.624c0-3.643.15-6.531.333-6.418.183.114.369-1.354.414-3.261a11.50211,11.50211,0,0,1,.425-3.682A6.83382,6.83382,0,0,0,61.364,177c.596-5.772.73-6.6,1.073-6.6.2,0,.363-.799.363-1.776a3.52513,3.52513,0,0,1,.4-2.024,2.78252,2.78252,0,0,0,.4-1.744,3.59225,3.59225,0,0,1,.398-1.894,2.89514,2.89514,0,0,0,.487-1.48c.049-.595.23-1.082.402-1.082s.313-.641.313-1.424c0-.847.162-1.323.4-1.176.227.14.4-.196.4-.776,0-.563.225-1.027.5-1.03.368-.005.357-.097-.042-.35-.447-.283-.421-.528.146-1.394.378-.577.532-1.053.342-1.056s-.11-.156.179-.339a2.23972,2.23972,0,0,0,.561-1.58c.019-.686.188-1.153.374-1.038.187.116.34-.15.34-.59a1.36931,1.36931,0,0,1,.4-1.047,1.89434,1.89434,0,0,0,.4-1.344,2.95206,2.95206,0,0,1,.318-1.476,9.3551,9.3551,0,0,0,.85-1.98,8.3587,8.3587,0,0,1,1.12-2.275c.325-.371.472-.866.328-1.1-.145-.234-.062-.425.184-.425s.343-.169.215-.375a.5531.5531,0,0,1,.277-.7A1.75378,1.75378,0,0,0,73,137.6c0-.57.209-.959.486-.905.28.055.389-.156.257-.5-.126-.327-.029-.595.214-.595.244,0,.443-.416.443-.925a3.16986,3.16986,0,0,1,.816-1.8c.448-.481.707-.875.575-.875-.381,0,1.923-4.13,2.704-4.847a2.31264,2.31264,0,0,0,.705-1.451,1.88373,1.88373,0,0,1,.576-1.282,1.00071,1.00071,0,0,0,.377-.998.63654.63654,0,0,1,.445-.766c.421-.162.546-.089.361.21-.174.282-.105.348.179.172a1.09557,1.09557,0,0,0,.462-.839,9.904,9.904,0,0,1,2.087-3.732.71053.71053,0,0,0,.313-.623A5.4325,5.4325,0,0,1,85,116c.55-.745,1-1.196,1-1.001,0,.636,1.174-1.181,1.187-1.838a1.55255,1.55255,0,0,1,.913-1.073c.495-.239.668-.446.384-.461-.421-.022-.421-.13,0-.585.284-.307.663-.469.843-.36.179.109.269-.135.2-.542-.072-.416.085-.698.359-.645.282.055.389-.156.255-.504-.165-.429-.045-.529.419-.351.453.174.583.077.431-.319-.125-.325.343-1.091,1.096-1.793a12.13427,12.13427,0,0,0,2.713-3.152,16.26865,16.26865,0,0,1,2-2.214,13.44871,13.44871,0,0,0,2.004-2.281c.004-.263,1.356-1.795,5.368-6.081,2.039-2.178,5.494-5.038,5.919-4.9.17.055.309-.17.309-.5s.174-.6.387-.6a6.01808,6.01808,0,0,0,1.786-1.4,5.80325,5.80325,0,0,1,1.814-1.4.408.408,0,0,0,.413-.4.42663.42663,0,0,1,.447-.4c.496,0,2.737-2.401,2.747-2.943.003-.188.261-.245.573-.125a.61226.61226,0,0,0,.787-.357.94491.94491,0,0,1,.806-.575c.323,0,.7-.36.84-.8a1.17747,1.17747,0,0,1,1.056-.8c.879,0,2.053-.958,1.658-1.352-.228-.229.549-.373.795-.148.061.055.544-.305,1.076-.8a3.68423,3.68423,0,0,1,1.314-.9c.192,0,.218-.211.059-.468-.19-.308-.077-.386.333-.229a1.59918,1.59918,0,0,0,1.39-.478c1.096-1.021,2.628-1.812,3.259-1.682.297.061.432-.064.301-.277-.132-.214.3-.576.959-.806.66-.23,1.2-.608,1.2-.839a.4236.4236,0,0,1,.424-.421c.233,0,.294.225.135.5-.167.29-.135.36.077.167a1.21078,1.21078,0,0,0,.364-.762c0-.236.357-.481.793-.545a1.22431,1.22431,0,0,0,.933-.538c.077-.232.499-.422.936-.422a2.29861,2.29861,0,0,0,1.399-.604c.332-.332.749-.514.926-.404.177.109.416-.159.53-.596.14-.537.546-.796,1.246-.796.57,0,1.037-.18,1.037-.4s.422-.4.938-.4a2.6146,2.6146,0,0,0,1.662-.8,2.349,2.349,0,0,1,1.262-.8c.296,0,.538-.18.538-.4s.362-.4.804-.4a15.74559,15.74559,0,0,0,4.796-1.978,2.32518,2.32518,0,0,1,1-.355,2.65938,2.65938,0,0,0,1.18-.5,1.8251,1.8251,0,0,1,1.1-.367c.396,0,.72-.201.72-.447,0-.251.353-.354.807-.235a1.565,1.565,0,0,0,1.357-.339,1.70831,1.70831,0,0,1,1.37-.392c.602.116.758-.003.586-.45-.175-.457.007-.58.723-.493a3.46746,3.46746,0,0,0,1.757-.318,4.49141,4.49141,0,0,1,2.095-.327c.712.059,1.196-.052,1.076-.246s.152-.353.605-.353.824-.18.824-.4.281-.4.624-.4.512.18.376.4-.057.4.176.4a.41386.41386,0,0,0,.424-.4c0-.22.461-.4,1.024-.4.572,0,.916-.174.779-.395-.141-.228.021-.294.381-.156a1.2878,1.2878,0,0,0,1.158-.201c.292-.242.65-.323.795-.178s.263.075.263-.156.761-.43,1.692-.443,1.756-.214,1.833-.447c.078-.233,1.012-.424,2.075-.424s1.993-.17,2.067-.378a4.11111,4.11111,0,0,1,2.213-.47c1.144-.051,1.988-.241,1.876-.423-.17-.275,1.845-.446,5.135-.437.38.001.594-.154.476-.345s1.236-.347,3.009-.347c2.599,0,3.224-.116,3.224-.6,0-.688-7.457-.782-12.6-.158m14.6.333c0,.206.36.348.8.315s.8-.202.8-.375-.36-.315-.8-.315-.8.169-.8.375m134.796,9.014a10.74213,10.74213,0,0,0,2.243,2.684c1.033.95,2.424,2.234,3.09,2.853a13.51271,13.51271,0,0,0,2.441,1.762c.871.45.534.005-1.154-1.526-1.311-1.189-3.418-3.19-4.684-4.446-1.607-1.596-2.19-1.996-1.936-1.327m-70.396.273a56.62072,56.62072,0,0,1,8.5,3.556,7.77505,7.77505,0,0,0,2.3.936c0-.362-.956-1.134-2-1.615-.55-.253-2.17-.996-3.6-1.651A18.93521,18.93521,0,0,0,265,58.27c-1.854-.211-1.898-.197-.6.192m88.811,17.977c.214.746.389,1.374.389,1.396s.45.564,1,1.203a4.91366,4.91366,0,0,1,1,1.501,23.72161,23.72161,0,0,0,2.137,3.4c2.971,4.254,7.328,11.585,8.012,13.48a77.62818,77.62818,0,0,0,5.18,10.122c1.775,2.02,8.625,19.548,10.887,27.859.359,1.32.802,2.94.984,3.6,1.573,5.709,2.002,7.741,2.239,10.6.063.77.304,2.39.534,3.6.231,1.21.581,3.28.778,4.6a19.76943,19.76943,0,0,0,.774,3.4c1.352,3.258,2.216,16.762,1.946,30.4-.266,13.402-1.054,21.887-2.489,26.8a43.48771,43.48771,0,0,0-.993,4.4c-.357,2.235-.798,4.359-1.579,7.6-.238.99-.687,3.24-.996,5-.31,1.76-.74,3.83-.956,4.6-12.657,45.155-43.659,85.331-84.913,110.04-8.048,4.821-22.152,11.705-28.145,13.739-1.1.373-2.54.923-3.2,1.222a109.97909,109.97909,0,0,1-16.6,5.031c-1.21.182-3.055.519-4.1.749-1.045.231-2.755.607-3.8.837-2.634.58-5.145,1.091-7.5,1.525a32.95653,32.95653,0,0,0-3.4.823c-1.897.614-6.049,1.179-13.234,1.799-7.136.615-6.706.294-6.745,5.035-.04,4.831-.004,5.121.673,5.381.355.136.468.509.307,1.015-.196.62-.11.744.388.553a1.5765,1.5765,0,0,1,1.386.428c.865.784,1.214.792,10.225.257,3.74-.223,8.104-.429,9.699-.459,1.602-.031,2.799-.216,2.676-.415-.208-.336,2.358-.584,4.625-.446.776.047.866-.024.4-.32-.436-.277-.142-.383,1.074-.388a9.41723,9.41723,0,0,0,2.68-.389,10.84068,10.84068,0,0,1,2.603-.476c.877-.052,1.505-.24,1.396-.418-.192-.31,2.155-.536,4.247-.409.778.047.867-.024.4-.323-.474-.302-.39-.385.4-.391,1.89-.014,2.8-.172,2.8-.486,0-.173.529-.314,1.176-.314a2.05547,2.05547,0,0,0,1.424-.4,2.49449,2.49449,0,0,1,1.624-.4c.757,0,1.376-.141,1.376-.313s.485-.353,1.078-.402a2.0889,2.0889,0,0,0,1.31-.465,4.15114,4.15114,0,0,1,2.084-.498c1.018-.067,1.768-.257,1.666-.422s.286-.3.862-.3.95-.157.831-.35.268-.35.86-.35c.591,0,1.143-.203,1.226-.45.082-.248.585-.45,1.116-.45.532,0,.967-.18.967-.4a.41387.41387,0,0,1,.424-.4c.233,0,.304.193.158.43-.146.236.113.192.576-.097s.842-.662.842-.829.54-.304,1.2-.304,1.2-.18,1.2-.4.362-.4.805-.4a3.94045,3.94045,0,0,0,1.5-.353,21.10664,21.10664,0,0,1,5.095-1.846c.22-.02.348-.276.284-.568-.073-.334.114-.443.503-.293a2.90328,2.90328,0,0,0,1.716-.216,4.23228,4.23228,0,0,1,1.397-.389c.165.036.3-.115.3-.335s.283-.4.629-.4a2.10529,2.10529,0,0,0,1.228-.599,4.19413,4.19413,0,0,1,1.658-.865,5.01766,5.01766,0,0,0,1.847-1.001,2.77615,2.77615,0,0,1,1.537-.735c.412,0,.661-.142.553-.315-.107-.173.271-.354.84-.401a2.446,2.446,0,0,0,1.594-.885,2.01127,2.01127,0,0,1,1.44-.799,1.83761,1.83761,0,0,0,1.381-.8,1.9018,1.9018,0,0,1,1.52-.8c.578,0,.913-.173.773-.4-.136-.22.113-.4.554-.4a1.90583,1.90583,0,0,0,1.328-.7,5.08654,5.08654,0,0,1,2.716-1.7,4.98093,4.98093,0,0,0,1.665-1.2,4.50987,4.50987,0,0,1,1.796-1.2,1.96259,1.96259,0,0,0,1.541-.495c.22-.188,1.93-1.459,3.8-2.826,1.87-1.368,4.39-3.269,5.6-4.226,1.21-.956,2.814-2.215,3.565-2.796a217.79625,217.79625,0,0,0,28.033-27.27c.989-1.203,1.979-2.383,2.2-2.624.221-.24.852-1.033,1.402-1.763s1.18-1.523,1.4-1.763c.22-.241,1.21-1.517,2.2-2.837s2.019-2.632,2.286-2.915a12.32175,12.32175,0,0,0,1.186-1.7c.385-.652.842-1.185,1.014-1.185.173,0,.317-.405.32-.9.005-.728.08-.785.394-.3.327.507.389.486.394-.136a2.31394,2.31394,0,0,1,.725-1.4c.395-.365.485-.507.2-.315-.327.22-.519.178-.519-.113a.895.895,0,0,1,.6-.691.90051.90051,0,0,0,.6-.699,1.79469,1.79469,0,0,1,.779-1.031c.428-.308.699-.689.602-.846s.093-.388.421-.515a1.22835,1.22835,0,0,0,.598-1.108c0-.484.117-.762.26-.619.485.485,1.295-1.119,1.057-2.093-.182-.742-.1-.913.353-.739.418.16.57-.025.52-.634a3.12825,3.12825,0,0,1,1.07-1.964,3.70033,3.70033,0,0,0,1.14-1.724c0-.341.16-.522.355-.401s.347-.004.337-.276c-.057-1.573.121-2.095.508-1.496.304.471.389.373.394-.454.008-1.345,1.037-3.412,1.332-2.674.116.29.229-.012.251-.672a4.45986,4.45986,0,0,1,.823-2.2,3.71848,3.71848,0,0,0,.791-1.724c.005-.398.189-.612.409-.476s.4-.033.4-.376.188-.624.418-.624a.401.401,0,0,0,.352-.5c-.159-1.225.053-1.933.498-1.658.303.187.388.081.241-.301-.267-.698,1.02-3.679,1.418-3.281.237.237.456-1.101.32-1.96-.026-.165.144-.3.377-.3s.32-.168.193-.372a.46584.46584,0,0,1,.183-.628.46588.46588,0,0,0,.183-.628c-.127-.204-.04-.372.193-.372s.424-.27.424-.6.18-.6.4-.6a.41387.41387,0,0,0,.4-.424c0-.233-.18-.312-.4-.176s-.4.057-.4-.176a.41387.41387,0,0,1,.4-.424c.22,0,.4-.371.4-.824,0-.52.17-.718.462-.538.256.158.354.112.22-.105a1.88756,1.88756,0,0,1,.268-1.372,2.54413,2.54413,0,0,0,.354-1.449,2.3232,2.3232,0,0,1,.355-1.39,2.50589,2.50589,0,0,0,.398-1.307c-.063-.211.204-.616.591-.9.535-.391.566-.516.128-.521-.457-.005-.469-.074-.055-.337.287-.182.49-.494.453-.694a1.29817,1.29817,0,0,1,.008-.563c.071-.185.355-1.522.571-2.688a1.70973,1.70973,0,0,1,.369-.767,2.76794,2.76794,0,0,0,.278-1.412c0-.623.18-1.133.4-1.133s.4-.54.4-1.2.18-1.2.4-1.2.4-.81.4-1.8.18-1.8.4-1.8.379-.135.353-.3c-.194-1.226.113-3.306.457-3.094.225.139.384.105.353-.076-.212-1.221.1-3.739.437-3.53.241.149.4-.388.4-1.353a2.99866,2.99866,0,0,1,.419-1.859c.287-.177.272-.438-.049-.824-.336-.405-.342-.564-.019-.564.256,0,.449-.675.449-1.567,0-.897.214-1.638.5-1.735.396-.133.398-.292.01-.762-.297-.359-.346-.742-.126-.966a7.26274,7.26274,0,0,0,.49-2.708,7.8176,7.8176,0,0,1,.365-2.486,11.05175,11.05175,0,0,0,.323-3.031,13.1186,13.1186,0,0,1,.47-3.605c.513-.958.464-29.833-.051-30.152a2.76929,2.76929,0,0,1-.375-1.712c.005-1.1.105-1.323.394-.876.233.361.39.41.394.124A.93233.93233,0,0,0,399.2,183a4.49509,4.49509,0,0,1-.4-2.344,5.77363,5.77363,0,0,0-.368-2.476,9.01326,9.01326,0,0,1-.593-2.98c-.575-6.638-.731-7.825-1.073-8.18a4.45909,4.45909,0,0,1-.366-2.1c0-.946-.18-1.72-.4-1.72s-.4-.979-.4-2.176a4.75773,4.75773,0,0,0-.4-2.424,2.05552,2.05552,0,0,1-.4-1.424c0-.647-.202-1.176-.449-1.176-.293,0-.258-.236.1-.677.373-.46.389-.58.049-.376-.362.217-.5-.086-.5-1.1a2.54758,2.54758,0,0,0-.4-1.647,2.0058,2.0058,0,0,1-.4-1.4,2.0059,2.0059,0,0,0-.4-1.4,2.0058,2.0058,0,0,1-.4-1.4,2.0058,2.0058,0,0,0-.4-1.4,2.00592,2.00592,0,0,1-.4-1.4,2.06663,2.06663,0,0,0-.347-1.367,5.40448,5.40448,0,0,1-.616-2.24,11.50172,11.50172,0,0,0-1.053-3.421,6.0588,6.0588,0,0,1-.784-2.208c0-.446-.171-.706-.379-.577-.209.129-.311-.119-.228-.551a1.44215,1.44215,0,0,0-.421-1.259,2.775,2.775,0,0,1-.572-1.826c0-.743-.181-1.351-.402-1.351-.22,0-.615-.799-.876-1.776s-.633-1.679-.825-1.56c-.193.119-.317-.027-.276-.324.133-.974-.015-1.591-.336-1.392-.173.107-.354-.278-.402-.854a2.18936,2.18936,0,0,0-.414-1.272,5.643,5.643,0,0,1-1.219-2.846c-.027-.233-.23-.312-.45-.176-.24.148-.402-.364-.406-1.276-.005-1.131-.106-1.369-.394-.924-.398.616-.61-.16-.421-1.54.041-.297-.118-.422-.352-.277-.235.146-.427-.016-.427-.359s-.18-.624-.4-.624-.4-.45-.4-1-.18-1-.4-1-.4-.281-.4-.624-.18-.512-.4-.376-.4-.123-.4-.576-.18-.824-.4-.824a.41388.41388,0,0,1-.4-.424c0-.233.193-.304.43-.158.236.146.192-.113-.097-.576s-.662-.842-.829-.842-.304-.27-.304-.6-.18-.6-.4-.6-.4-.36-.4-.8-.18-.8-.4-.8-.4-.27-.4-.6-.147-.6-.326-.6c-.18,0-.755-.765-1.278-1.7s-1.82-3.034-2.882-4.664a22.07628,22.07628,0,0,1-2.187-4,3.1078,3.1078,0,0,0-.992-1.559A1.67131,1.67131,0,0,1,366,91.866a1.84352,1.84352,0,0,0-.8-1.066,1.843,1.843,0,0,1-.8-1.112c0-.294-.18-.424-.4-.288s-.4-.134-.4-.6-.18-.736-.4-.6-.4-.033-.4-.376-.18-.624-.4-.624-.4-.27-.4-.6a6.25685,6.25685,0,0,0-1.6-2.248,6.70465,6.70465,0,0,1-1.6-2.157.92031.92031,0,0,0-.6-.74,1.07719,1.07719,0,0,1-.606-.942c-.005-.563-.08-.596-.356-.16-.275.434-.409.37-.621-.3-.149-.469-.447-.853-.661-.853-.215,0-.338-.315-.274-.7.066-.391-.103-.656-.382-.6-.275.055-.5-.091-.5-.324s-.211-.293-.468-.134c-.297.184-.391.083-.258-.276a1.57294,1.57294,0,0,0-.52-1.324c-.712-.738-.721-.722-.343.597M309.442,85.3a52.05928,52.05928,0,0,1,7.352,7.1c.732.945.73.909-.035-.667-.882-1.815-6.776-7.333-7.833-7.333-.426,0-.257.295.516.9m31.597,37.8a11.88009,11.88009,0,0,1,1.715,2.5c.524.99,1.454,2.734,2.066,3.876a20.44327,20.44327,0,0,1,1.3,2.8c.149.578.197.544.234-.17.105-2.033-4.311-9.706-5.587-9.706-.283,0-.168.296.272.7M27.476,154.35a15.06443,15.06443,0,0,0-.276,2.476,1.95282,1.95282,0,0,1-.4,1.374,2.92264,2.92264,0,0,0-.4,1.8,2.92264,2.92264,0,0,1-.4,1.8,3.30291,3.30291,0,0,0-.4,1.944,4.40127,4.40127,0,0,1-.363,2.076,6.5098,6.5098,0,0,0-.579,2.38c-.118,1.1-.321,2.72-.451,3.6l-.235,1.6.549-1.2a13.93438,13.93438,0,0,0,.827-3c.344-2.22.827-4.774,1.402-7.4.241-1.1.672-3.087.958-4.415a10.756,10.756,0,0,0,.283-3.4c-.225-.925-.256-.902-.515.365M360.168,174.6a79.73977,79.73977,0,0,1,1.284,9.593c.208,2.543.335,2.994.623,2.216.375-1.014.273-2.406-.737-10.106a4.78261,4.78261,0,0,0-.858-2.4c-.53-.438-.571-.348-.312.697M16,235.553a.59345.59345,0,0,0,.359.514,36.79557,36.79557,0,0,1,4.441,6.724.38531.38531,0,0,0,.353.409c.195,0,.477.405.627.9.151.495.362.688.47.43.214-.513-1.195-3.525-1.834-3.92a5.93012,5.93012,0,0,1-1.097-1.727c-1.06-2.238-3.319-4.505-3.319-3.33m337.606,14.752a4.159,4.159,0,0,1-.37,1.6c-.2.382-1.217,2.855-2.261,5.495-2.624,6.637-7.589,16.638-9.915,19.972-.449.645-.584,1.028-.298.852.854-.528,4.561-6.558,6.531-10.624,2.673-5.515,4.307-9.163,4.307-9.615a3.22575,3.22575,0,0,1,.353-1.09c.195-.382.555-1.19.8-1.795.246-.605.631-1.505.855-2,.627-1.38.757-2.51.362-3.134-.272-.431-.359-.349-.364.339m-64.417,79.276a120.426,120.426,0,0,1-11.392,6.359c-4.35,2.084-7.92,3.729-8.797,4.055-.44.164-1.34.526-2,.805s-1.65.684-2.2.9-1.313.552-1.695.747a5.76936,5.76936,0,0,1-2.076.353,2.41715,2.41715,0,0,0-1.668.463c-.35.566,3.319.215,4.608-.441.457-.232,1.189-.602,1.626-.822a3.7114,3.7114,0,0,1,1.204-.4c.381,0,1.284-.374,6.001-2.488,7.064-3.165,16.6-8.618,17.436-9.971.309-.5.083-.405-1.047.44" transform="translate(0.00725 -11.02666)" style="fill:#82cd64;fill-rule:evenodd"/></svg>