<svg height="512pt" viewBox="0 0 512 512" width="512pt" xmlns="http://www.w3.org/2000/svg" xmlns:xlink="http://www.w3.org/1999/xlink"><linearGradient id="a" gradientTransform="matrix(1 0 0 -1 0 -13734)" gradientUnits="userSpaceOnUse" x1="0" x2="512" y1="-13990" y2="-13990"><stop offset="0" stop-color="#00f38d"/><stop offset="1" stop-color="#009eff"/></linearGradient><path d="m512 256c0 141.386719-114.613281 256-256 256s-256-114.613281-256-256 114.613281-256 256-256 256 114.613281 256 256zm0 0" fill="url(#a)"/><path d="m256 119.441406h-25.792969l40.289063-40.386718-21.238282-21.1875-76.414062 76.601562 75.417969 76.679688 21.386719-21.039063-40-40.667969h26.351562c75.546875 0 137.007812 61.464844 137.007812 137.011719s-61.460937 137.007813-137.007812 137.007813-137.007812-61.460938-137.007812-137.011719v-15l-30 .003906v15c0 92.089844 74.917968 167.007813 167.007812 167.007813s167.007812-74.917969 167.007812-167.007813-74.917968-167.011719-167.007812-167.011719zm0 0" fill="#fff"/></svg>