<svg id="Layer_1" enable-background="new 0 0 510 510" height="512" viewBox="0 0 510 510" width="512" xmlns="http://www.w3.org/2000/svg"><g id="XMLID_3796_"><path id="XMLID_3753_" d="m0 0v465h187.5l17.5-232.5-17.5-232.5c-10.41 0-177.09 0-187.5 0z" fill="#f2f4f9"/><path id="XMLID_3751_" d="m187.5 0v465h86.581l100.919-225v-240z" fill="#dbf0f9"/><g id="XMLID_3795_"><path id="XMLID_3774_" d="m60 360h105v30h-105z" fill="#78c4f8"/></g><g id="XMLID_3794_"><path id="XMLID_3757_" d="m60 300h105v30h-105z" fill="#78c4f8"/></g><g id="XMLID_3793_"><path id="XMLID_3756_" d="m60 240h105v30h-105z" fill="#78c4f8"/></g><g id="XMLID_3792_"><path id="XMLID_3755_" d="m60 180h105v30h-105z" fill="#78c4f8"/></g><g id="XMLID_3775_"><path id="XMLID_3752_" d="m187.5 150h-127.5v-30h127.5l10.259 15z" fill="#2ee66b"/></g><g id="XMLID_3749_"><g><path id="XMLID_215_" d="m187.5 90c-15.411 0-111.987 0-127.5 0 0-10.492 0-19.508 0-30h127.5l8.5 15z" fill="#ff641a"/></g></g><g id="XMLID_3802_"><path id="XMLID_3830_" d="m187.5 120h127.5v30h-127.5z" fill="#24b383"/></g><g id="XMLID_3747_"><g><path id="XMLID_222_" d="m187.5 60h127.5v30h-127.5z" fill="#f03800"/></g></g><path id="XMLID_3825_" d="m345 375c0-16.568 13.431-30 30-30l15-39-15-66c-5.902 0-10.973 0-16.875 0-3.853 13.165-7.163 24.478-11.016 37.643-7.372 2.107-14.484 5.059-21.217 8.801-12.038-6.588-22.381-12.248-34.419-18.835-8.347 8.347-15.518 15.519-23.865 23.864 6.587 12.038 12.248 22.382 18.835 34.42-3.739 6.728-6.692 13.841-8.801 21.217-13.165 3.853-24.478 7.163-37.642 11.016v33.75c13.165 3.853 24.477 7.163 37.642 11.016 2.108 7.371 5.06 14.484 8.801 21.217-6.587 12.038-12.248 22.382-18.835 34.42 8.346 8.346 15.519 15.518 23.865 23.864 12.038-6.587 22.381-12.247 34.419-18.835 6.727 3.738 13.841 6.691 21.217 8.801 3.853 13.165 7.163 24.479 11.016 37.643h16.875l15-60-15-45c-16.568-.002-30-13.433-30-30.002z" fill="#5a5a5a"/><path id="XMLID_3822_" d="m510 391.875v-33.75l-37.642-11.016c-2.134-7.461-5.106-14.567-8.801-21.217l18.835-34.42-23.865-23.864-34.419 18.835c-6.65-3.695-13.756-6.668-21.217-8.801l-11.016-37.642h-16.875v105c16.568 0 30 13.432 30 30s-13.432 30-30 30v105h16.875l11.016-37.643c7.462-2.133 14.567-5.105 21.217-8.801l34.419 18.835 23.865-23.864-18.835-34.42c3.695-6.648 6.668-13.756 8.801-21.217z" fill="#444"/></g></svg>