<svg version="1.1" id="Layer_1" xmlns="http://www.w3.org/2000/svg" xmlns:xlink="http://www.w3.org/1999/xlink" x="0px" y="0px"
	 viewBox="0 0 200 200" style="enable-background:new 0 0 200 200;" xml:space="preserve">
<style type="text/css">
	.st0{fill:#5EBDAA;stroke:#5DBDAA;stroke-width:4.4119;stroke-linecap:round;stroke-miterlimit:10;}
	.st1{fill:none;}
</style>
<path class="st0" d="M76.5,86.8c0,0.2,2.6-4.1,4.3-5.9c1.7-1.7,3.6-3.2,5.6-4.4c2.1-1.2,4.3-2.1,6.6-2.8c2.3-0.7,4.7-1,7.2-1
	c2.5,0,4.9,0.3,7.2,1c2.3,0.6,4.5,1.6,6.5,2.7c2,1.2,3.9,2.6,5.5,4.2c1.7,1.7,3.1,3.5,4.2,5.5c1.2,2,2.1,4.2,2.7,6.5
	c0.6,2.3,1,4.7,1,7.2s-0.3,4.9-1,7.2c-0.6,2.3-1.6,4.5-2.7,6.5c-1.2,2-2.6,3.9-4.2,5.5c-1.7,1.7-3.5,3.1-5.5,4.2
	c-2,1.2-4.2,2.1-6.5,2.7c-2.3,0.6-4.7,1-7.2,1c-3,0-6-0.5-8.8-1.5c-2.8-1-5.4-2.3-7.7-4.1c-2.3-1.8-4.3-3.9-6-6.3
	c-1.7-2.4-2.9-5.1-3.7-8.1l3.3-0.9c0.7,2.6,1.8,4.9,3.3,7c1.5,2.1,3.2,4,5.2,5.5c2,1.5,4.3,2.7,6.7,3.6c2.5,0.9,5,1.3,7.7,1.3
	c2.2,0,4.3-0.3,6.3-0.8c2-0.6,3.9-1.4,5.7-2.4c1.8-1,3.4-2.3,4.8-3.7c1.5-1.5,2.7-3.1,3.7-4.8c1-1.8,1.8-3.7,2.4-5.7
	c0.6-2,0.8-4.1,0.8-6.3c0-2.2-0.3-4.3-0.8-6.3c-0.6-2-1.4-3.9-2.4-5.7c-1-1.8-2.3-3.4-3.7-4.8c-1.5-1.5-3.1-2.7-4.8-3.7
	c-1.8-1-3.7-1.8-5.7-2.4c-2-0.6-4.1-0.8-6.3-0.8c-2.3,0-4.5,0.3-6.7,1c-2.2,0.6-4.2,1.5-6,2.7c-1.9,1.2-3.6,2.6-5.1,4.3
	c-1.5,1.7-2.7,3.5-3.7,5.6"/>
<polyline class="st0" points="77.5,90 85.4,90 85.4,93.4 71.8,93.4 71.8,79.9 75.2,79.9 75.2,87 "/>
<rect x="69.6" y="77.3" class="st1" width="17.9" height="17.9"/>
</svg>
