<svg viewBox="0 0 644.1 417.6"
     xmlns="http://www.w3.org/2000/svg">
<style type="text/css">
	.st0{fill:#B4DBF1;}
  .st1{fill:#E6E5E4;}
  .st2{fill:#FFFFFF;}
  .st3{fill:#F4F3F2;}
  .st4{fill:#E5E8EA;}
  .st5{fill:none;stroke:#CDCCCB;stroke-width:5;stroke-linejoin:round;stroke-miterlimit:10;}
  .st6{fill:#EE694B;}
  .st7{fill:#EE9889;}
  .st8{fill:#64A2CC;}
  .st9{fill:#C4E2F3;}
  .st10{fill:none;stroke:#C4E2F2;stroke-width:9;stroke-miterlimit:10;}
  .st11{fill:#B5DBEF;}
  .st12{fill:#88A4B3;}
  .st13{fill:#613E31;}
  .st14{fill:none;}
  .st15{fill:#86D3EA;}
  .st16{fill:#333333;}
  .st17{fill:#F6D7C3;}
  .st18{fill:#E57E8A;}
  .st19{fill:#FAED20;}
  .st20{fill:#8C6239;}
</style>
<rect x="35.4" y="89.2" transform="matrix(0.9737 -0.2279 0.2279 0.9737 -50.6718 40.4053)" class="st0" width="228.3" height="300.7"></rect>
<rect x="257.7" y="36.9" transform="matrix(0.9737 -0.2279 0.2279 0.9737 -32.8511 90.0016)" class="st0" width="231" height="300.7"></rect>
<rect x="39.9" y="82.7" transform="matrix(0.9737 -0.2279 0.2279 0.9737 -49.123 40.5717)" class="st1" width="222.4" height="300.6"></rect>
<rect x="256.4" y="32.1" transform="matrix(0.9737 -0.2279 0.2279 0.9737 -31.9037 88.4941)" class="st1" width="221.4" height="300.6"></rect>
<path class="st2" d="M292.3,348.3c0,0-20-4.9-57.1,3.8c-15.5,3.6-55.8,23.3-85.6,32.2C108.2,396.7,79.7,398,79.7,398L11.2,105.2
	c0,0,28.5-1.4,69.9-13.8c29.8-8.9,70.1-28.6,85.6-32.2c37.1-8.7,57.1-3.8,57.1-3.8L292.3,348.3z"></path>
<path class="st2" d="M436.3,5.7l68.5,292.8c0,0-26.2,11.4-68.8,18.7c-30.7,5.2-75.5,5.5-91,9.1c-37.1,8.7-52.8,22-52.8,22
	L223.7,55.5c0,0,15.7-13.3,52.8-22c15.5-3.6,60.3-3.9,91-9.1C410.1,17.1,436.3,5.7,436.3,5.7z"></path>
<path class="st3" d="M240.2,45.8l79,288.3c-18.7,7.2-27,14.2-27,14.2L223.7,55.5C223.7,55.5,228.9,51.1,240.2,45.8z"></path>
<path class="st4" d="M597.5,13.8"></path>
<path class="st5" d="M266.9,88c56.4-25.2,76.2-5.1,147-26.3"></path>
<path class="st5" d="M274.1,118.9c56.4-25.2,76.2-5.1,147-26.3"></path>
<path class="st5" d="M281.4,149.8c56.4-25.2,76.2-5.1,147-26.3"></path>
<path class="st5" d="M288.6,180.7c56.4-25.2,76.2-5.1,147-26.3"></path>
<path class="st5" d="M295.8,211.6c56.4-25.2,76.2-5.1,147-26.3"></path>
<path class="st5" d="M452.2,215.5c-72.5,22.3-92.1,1.5-149.1,27"></path>
<path class="st5" d="M459.4,246.4c-72.5,22.3-92.1,1.5-149.1,27"></path>
<path class="st6" d="M604.8,282c-0.4-0.4-0.7-2.2-2.7-2.7l-16.3-4.2c-2-0.5-4,0.7-4.5,2.7l-11,43.6c0.6,2.8,1.6,6.4,1.7,7
	c0.3,1.3,1.3,2.3,2.7,2.7l16.3,4.2c2,0.5,4-0.7,4.5-2.7l10.9-42.6C606.8,288.3,604.8,282,604.8,282z"></path>
<path class="st7" d="M587.5,328.6l-12.6-3.2c-3-0.8-4.8-3.8-4-6.8l10-38.9c0.8-3,3.8-4.8,6.8-4l12.6,3.2c3,0.8,4.8,3.8,4,6.8
	l-10,38.9C593.5,327.5,590.5,329.4,587.5,328.6z"></path>
<path class="st8" d="M575.8,299.1l5.5-21.3c0.5-2,2.5-3.2,4.5-2.7l16.3,4.2c2,0.5,3.2,2.5,2.7,4.5l-5.5,21.3"></path>
<circle class="st9" cx="578.6" cy="195" r="42.6"></circle>
<rect x="536" y="174.9" class="st9" width="85.1" height="18.7"></rect>
<path class="st10" d="M626.4,202.3h-10.5c-5.3,0-9.6-4.3-9.6-9.6v-7.1c0-5.3,4.3-9.6,9.6-9.6h10.5c5.3,0,9.6,4.3,9.6,9.6v7.1
	C636,197.9,631.7,202.3,626.4,202.3z"></path>
<circle class="st11" cx="578.4" cy="174.9" r="42.8"></circle>
<circle class="st12" cx="578.4" cy="174.9" r="36.8"></circle>
<path class="st13" d="M614.5,182c-3.3,17-18.2,29.7-36.2,29.7c-17.9,0-32.8-12.8-36.2-29.7c3.3-16.9,18.2-29.7,36.2-29.7
	S611.2,165,614.5,182z"></path>
<path class="st14" d="M615.2,174.9c0,2.4-0.2,4.8-0.7,7.1c-3.3,17-18.2,29.7-36.2,29.7c-17.9,0-32.8-12.8-36.2-29.7
	c-0.4-2.3-0.7-4.7-0.7-7.1c0-20.3,16.5-36.8,36.8-36.8C598.7,138,615.2,154.5,615.2,174.9z"></path>
<rect x="435.4" y="223.5" transform="matrix(0.8494 -0.5278 0.5278 0.8494 -90.557 280.9446)" class="st15" width="23.1" height="151.3"></rect>
<rect x="442.4" y="223.5" transform="matrix(0.8494 -0.5278 0.5278 0.8494 -90.557 280.9446)" class="st16" width="9.1" height="151.3"></rect>
<polygon class="st17" points="389.6,206.7 397.2,240.9 416.9,228.8 "></polygon>
<polygon class="st16" points="389.6,206.7 391.7,216 397,212.7 "></polygon>
<path class="st18" d="M502.1,377.1l-9.8,6.1c-2.7,1.7-6.3,0.8-8-1.9l-7.4-11.9c-1.7-2.7-0.8-6.3,1.9-8l9.8-6.1
	c2.7-1.7,6.3-0.8,8,1.9l7.4,11.9C505.7,371.8,504.8,375.4,502.1,377.1z"></path>
<rect x="474" y="353" transform="matrix(0.8494 -0.5278 0.5278 0.8494 -117.5345 310.6584)" class="st19" width="23.1" height="16.6"></rect>
<path class="st19" d="M492.1,348.9l-20.5,12.7c-0.3,0.2-0.6,0.1-0.8-0.2l-0.6-1c-0.2-0.3-0.1-0.6,0.2-0.8l20.5-12.7
	c0.3-0.2,0.6-0.1,0.8,0.2l0.6,1C492.4,348.4,492.3,348.7,492.1,348.9z"></path>
<path class="st19" d="M500.8,363l-20.5,12.7c-0.3,0.2-0.6,0.1-0.8-0.2l-0.6-1c-0.2-0.3-0.1-0.6,0.2-0.8l20.5-12.7
	c0.3-0.2,0.6-0.1,0.8,0.2l0.6,1C501.1,362.4,501.1,362.8,500.8,363z"></path>
<path class="st20" d="M608.9,187.7c-0.8-14.3-14.2-25.7-30.5-25.7c-16.6,0-30,11.7-30.5,26.3c0.4-16.5,13.9-29.7,30.5-29.7
	C594.8,158.6,608.2,171.5,608.9,187.7z"></path>
<g>
	<g>
		<path class="st5" d="M57.4,147.9c72.8-12.1,81.8-38.9,143.5-41.2"></path>
	</g>
	<g>
		<path class="st5" d="M64.5,178.8c72.8-12.1,81.8-38.9,143.5-41.2"></path>
	</g>
	<g>
		<path class="st5" d="M71.7,209.7c72.8-12.1,81.8-38.9,143.5-41.2"></path>
	</g>
	<g>
		<path class="st5" d="M78.8,240.6c72.8-12.1,81.8-38.9,143.5-41.2"></path>
	</g>
	<g>
		<path class="st5" d="M85.9,271.6c72.8-12.1,81.8-38.9,143.5-41.2"></path>
	</g>
	<g>
		<path class="st5" d="M90.8,302.8c74.9-11.9,83.4-39.3,145.8-41.6"></path>
	</g>
	<g>
		<path class="st5" d="M97.9,333.7c74.9-11.9,83.4-39.3,145.8-41.6"></path>
	</g>
</g>
</svg>
